<?xml version="1.0" encoding="iso-8859-1"?>
<!-- Generator: Adobe Illustrator 19.0.0, SVG Export Plug-In . SVG Version: 6.00 Build 0)  -->
<svg version="1.1" id="Capa_1" xmlns="http://www.w3.org/2000/svg" xmlns:xlink="http://www.w3.org/1999/xlink" x="0px" y="0px"
	 viewBox="0 0 511.488 511.488" style="enable-background:new 0 0 511.488 511.488;" xml:space="preserve">
<g>
	<rect x="3.996" y="363.634" style="fill:#D7E9FF;" width="367.63" height="79.92"/>
	<polygon style="fill:#D7E9FF;" points="371.627,427.57 67.932,427.57 3.996,363.635 3.996,155.844 371.627,155.844 	"/>
</g>
<rect x="3.996" y="83.914" style="fill:#5C9EFF;" width="367.63" height="71.928"/>
<path style="fill:#D7E9FF;" d="M67.932,51.949c-4.417,0-7.992,3.574-7.992,7.992v47.952c0,4.418,3.574,7.992,7.992,7.992
	s7.992-3.574,7.992-7.992V59.94C75.924,55.523,72.349,51.949,67.932,51.949z"/>
<path style="fill:#94C1FF;" d="M67.932,107.892c-4.417,0-7.992-3.574-7.992-7.992v7.992c0,4.418,3.574,7.992,7.992,7.992
	s7.992-3.574,7.992-7.992V99.9C75.924,104.318,72.349,107.892,67.932,107.892z"/>
<g>
	<path style="fill:#D7E9FF;" d="M147.852,51.949c-4.417,0-7.992,3.574-7.992,7.992v47.952c0,4.418,3.575,7.992,7.992,7.992
		s7.992-3.574,7.992-7.992V59.94C155.844,55.523,152.269,51.949,147.852,51.949z"/>
	<path style="fill:#D7E9FF;" d="M227.771,51.949c-4.417,0-7.992,3.574-7.992,7.992v47.952c0,4.418,3.575,7.992,7.992,7.992
		c4.418,0,7.992-3.574,7.992-7.992V59.94C235.764,55.523,232.189,51.949,227.771,51.949z"/>
	<path style="fill:#D7E9FF;" d="M307.691,51.949c-4.418,0-7.992,3.574-7.992,7.992v47.952c0,4.418,3.574,7.992,7.992,7.992
		s7.992-3.574,7.992-7.992V59.94C315.683,55.523,312.109,51.949,307.691,51.949z"/>
</g>
<g>
	<path style="fill:#94C1FF;" d="M147.852,107.892c-4.417,0-7.992-3.574-7.992-7.992v7.992c0,4.418,3.575,7.992,7.992,7.992
		s7.992-3.574,7.992-7.992V99.9C155.844,104.318,152.269,107.892,147.852,107.892z"/>
	<path style="fill:#94C1FF;" d="M227.771,107.892c-4.417,0-7.992-3.574-7.992-7.992v7.992c0,4.418,3.575,7.992,7.992,7.992
		c4.418,0,7.992-3.574,7.992-7.992V99.9C235.764,104.318,232.189,107.892,227.771,107.892z"/>
	<path style="fill:#94C1FF;" d="M307.691,107.892c-4.418,0-7.992-3.574-7.992-7.992v7.992c0,4.418,3.574,7.992,7.992,7.992
		s7.992-3.574,7.992-7.992V99.9C315.683,104.318,312.109,107.892,307.691,107.892z"/>
</g>
<g>
	<path style="fill:#FFFFFF;" d="M307.691,59.94c4.418,0,7.992,3.575,7.992,7.992V59.94c0-4.417-3.574-7.992-7.992-7.992
		c-4.41,0-7.992,3.574-7.992,7.992v7.992C299.699,63.515,303.281,59.94,307.691,59.94z"/>
	<path style="fill:#FFFFFF;" d="M227.771,59.94c4.418,0,7.992,3.575,7.992,7.992V59.94c0-4.417-3.574-7.992-7.992-7.992
		c-4.417,0-7.992,3.574-7.992,7.992v7.992C219.78,63.515,223.354,59.94,227.771,59.94z"/>
	<path style="fill:#FFFFFF;" d="M147.852,59.94c4.417,0,7.992,3.575,7.992,7.992V59.94c0-4.417-3.574-7.992-7.992-7.992
		s-7.992,3.574-7.992,7.992v7.992C139.86,63.515,143.434,59.94,147.852,59.94z"/>
	<path style="fill:#FFFFFF;" d="M67.932,59.94c4.417,0,7.992,3.575,7.992,7.992V59.94c0-4.417-3.574-7.992-7.992-7.992
		s-7.992,3.574-7.992,7.992v7.992C59.94,63.515,63.515,59.94,67.932,59.94z"/>
	<polygon style="fill:#FFFFFF;" points="67.932,427.57 67.932,363.635 3.996,363.635 	"/>
</g>
<rect x="3.996" y="443.554" style="fill:#D7E9FF;" width="367.63" height="15.984"/>
<g>
	<rect x="171.824" y="179.824" style="fill:#FFFFFF;" width="31.968" height="31.968"/>
	<rect x="219.784" y="179.824" style="fill:#FFFFFF;" width="31.968" height="31.968"/>
	<rect x="267.734" y="179.824" style="fill:#FFFFFF;" width="31.968" height="31.968"/>
	<rect x="267.734" y="275.724" style="fill:#FFFFFF;" width="31.968" height="31.967"/>
	<rect x="267.734" y="323.674" style="fill:#FFFFFF;" width="31.968" height="31.967"/>
	<rect x="267.734" y="371.624" style="fill:#FFFFFF;" width="31.968" height="31.969"/>
	<rect x="27.974" y="227.774" style="fill:#FFFFFF;" width="31.968" height="31.968"/>
	<rect x="75.924" y="227.774" style="fill:#FFFFFF;" width="31.968" height="31.968"/>
	<rect x="123.874" y="227.774" style="fill:#FFFFFF;" width="31.968" height="31.968"/>
	<rect x="171.824" y="227.774" style="fill:#FFFFFF;" width="31.968" height="31.968"/>
	<rect x="219.784" y="227.774" style="fill:#FFFFFF;" width="31.968" height="31.968"/>
	<rect x="267.734" y="227.774" style="fill:#FFFFFF;" width="31.968" height="31.968"/>
	<rect x="315.684" y="179.824" style="fill:#FFFFFF;" width="31.968" height="31.968"/>
	<rect x="315.684" y="275.724" style="fill:#FFFFFF;" width="31.968" height="31.967"/>
	<rect x="315.684" y="323.674" style="fill:#FFFFFF;" width="31.968" height="31.967"/>
	<rect x="315.684" y="227.774" style="fill:#FFFFFF;" width="31.968" height="31.968"/>
	<rect x="28.3" y="275.724" style="fill:#FFFFFF;" width="31.968" height="31.967"/>
	<rect x="27.974" y="323.674" style="fill:#FFFFFF;" width="31.968" height="31.967"/>
	<rect x="75.924" y="323.674" style="fill:#FFFFFF;" width="31.968" height="31.967"/>
	<rect x="124.204" y="323.674" style="fill:#FFFFFF;" width="31.968" height="31.967"/>
	<rect x="172.154" y="323.674" style="fill:#FFFFFF;" width="31.968" height="31.967"/>
	<rect x="220.104" y="323.674" style="fill:#FFFFFF;" width="31.968" height="31.967"/>
	<rect x="220.104" y="371.624" style="fill:#FFFFFF;" width="31.968" height="31.969"/>
	<rect x="172.154" y="371.624" style="fill:#FFFFFF;" width="31.968" height="31.969"/>
	<rect x="123.874" y="371.624" style="fill:#FFFFFF;" width="31.968" height="31.969"/>
	<rect x="75.924" y="371.624" style="fill:#FFFFFF;" width="31.968" height="31.969"/>
	<rect x="76.254" y="275.724" style="fill:#FFFFFF;" width="31.968" height="31.967"/>
	<rect x="124.204" y="275.724" style="fill:#FFFFFF;" width="31.968" height="31.967"/>
</g>
<rect x="363.634" y="83.914" style="fill:#2287FF;" width="7.992" height="71.928"/>
<g>
	<rect x="363.634" y="163.834" style="fill:#94C1FF;" width="7.992" height="263.73"/>
	<rect x="3.996" y="155.844" style="fill:#94C1FF;" width="367.63" height="7.992"/>
</g>
<g>
	<rect x="172.154" y="275.724" style="fill:#FFFFFF;" width="31.968" height="31.967"/>
	<rect x="220.104" y="275.724" style="fill:#FFFFFF;" width="31.968" height="31.967"/>
</g>
<g>
	<rect x="3.996" y="355.644" style="fill:#94C1FF;" width="71.928" height="7.992"/>
	<rect x="67.934" y="363.634" style="fill:#94C1FF;" width="7.992" height="63.936"/>
	<rect x="3.996" y="83.914" style="fill:#94C1FF;" width="7.992" height="71.928"/>
</g>
<rect x="3.996" y="163.834" style="fill:#FFFFFF;" width="7.992" height="191.81"/>
<g>
	<polygon style="fill:#94C1FF;" points="363.635,419.58 435.562,259.74 507.491,419.58 	"/>
	<polygon style="fill:#94C1FF;" points="379.619,331.668 435.562,219.78 491.507,331.668 	"/>
</g>
<polygon style="fill:#D7E9FF;" points="435.562,219.78 379.619,331.668 395.603,331.668 443.555,235.764 "/>
<g>
	<polygon style="fill:#5C9EFF;" points="443.555,235.748 491.507,331.668 475.523,331.668 435.548,251.708 	"/>
	<rect x="419.574" y="419.584" style="fill:#5C9EFF;" width="31.968" height="39.959"/>
</g>
<g style="opacity:0.2;">
	<polygon style="fill:#3A3847;" points="399.599,339.66 471.527,339.66 467.929,331.668 403.197,331.668 	"/>
</g>
<polygon style="fill:#D7E9FF;" points="399.599,339.66 363.635,419.58 379.619,419.58 415.583,339.66 "/>
<polygon style="fill:#5C9EFF;" points="471.527,339.66 507.491,419.58 491.507,419.58 455.543,339.66 "/>
<g>
	<path style="fill:#116FFF;" d="M347.651,359.639h-31.968c-2.209,0-3.996-1.787-3.996-3.996v-31.967
		c0-2.209,1.787-3.996,3.996-3.996h31.968c2.209,0,3.996,1.787,3.996,3.996v31.967C351.647,357.851,349.86,359.639,347.651,359.639z
		 M319.68,351.648h23.976v-23.977H319.68V351.648z"/>
	<path style="fill:#116FFF;" d="M347.651,431.566H67.928c-2.208,0-3.996-1.787-3.996-3.996c0-2.207,1.787-3.994,3.996-3.994h279.723
		c2.209,0,3.996,1.787,3.996,3.994C351.647,429.779,349.86,431.566,347.651,431.566z"/>
	<path style="fill:#116FFF;" d="M3.996,367.631c-2.208,0-3.996-1.787-3.996-3.996V83.916c0-2.209,1.787-3.996,3.996-3.996
		s3.996,1.787,3.996,3.996v279.718C7.992,365.844,6.205,367.631,3.996,367.631z"/>
	<path style="fill:#116FFF;" d="M43.956,87.912H3.996C1.788,87.912,0,86.124,0,83.916c0-2.209,1.787-3.996,3.996-3.996h39.96
		c2.209,0,3.996,1.787,3.996,3.996C47.952,86.125,46.165,87.912,43.956,87.912z"/>
	<path style="fill:#116FFF;" d="M371.627,87.912h-39.959c-2.209,0-3.996-1.788-3.996-3.996c0-2.209,1.787-3.996,3.996-3.996h39.959
		c2.209,0,3.996,1.787,3.996,3.996S373.836,87.912,371.627,87.912z"/>
	<path style="fill:#116FFF;" d="M371.627,303.695c-2.209,0-3.996-1.787-3.996-3.996V83.916c0-2.209,1.787-3.996,3.996-3.996
		s3.996,1.787,3.996,3.996v215.783C375.623,301.908,373.836,303.695,371.627,303.695z"/>
	<path style="fill:#116FFF;" d="M371.627,159.84H3.996c-2.208,0-3.996-1.787-3.996-3.996s1.787-3.996,3.996-3.996h367.631
		c2.209,0,3.996,1.787,3.996,3.996S373.836,159.84,371.627,159.84z"/>
	<path style="fill:#116FFF;" d="M203.796,215.784h-31.968c-2.209,0-3.996-1.787-3.996-3.996V179.82c0-2.208,1.787-3.996,3.996-3.996
		h31.968c2.208,0,3.996,1.787,3.996,3.996v31.968C207.792,213.996,206.004,215.784,203.796,215.784z M175.824,207.792H199.8v-23.976
		h-23.976V207.792z"/>
	<path style="fill:#116FFF;" d="M251.747,215.784h-31.968c-2.208,0-3.996-1.787-3.996-3.996V179.82c0-2.208,1.788-3.996,3.996-3.996
		h31.968c2.208,0,3.996,1.787,3.996,3.996v31.968C255.744,213.996,253.956,215.784,251.747,215.784z M223.775,207.792h23.977
		v-23.976h-23.977V207.792z"/>
	<path style="fill:#116FFF;" d="M299.699,215.784h-31.968c-2.208,0-3.996-1.787-3.996-3.996V179.82c0-2.208,1.788-3.996,3.996-3.996
		h31.968c2.209,0,3.996,1.787,3.996,3.996v31.968C303.695,213.996,301.908,215.784,299.699,215.784z M271.727,207.792h23.976
		v-23.976h-23.976V207.792z"/>
	<path style="fill:#116FFF;" d="M347.651,215.784h-31.968c-2.209,0-3.996-1.787-3.996-3.996V179.82c0-2.208,1.787-3.996,3.996-3.996
		h31.968c2.209,0,3.996,1.787,3.996,3.996v31.968C351.647,213.996,349.86,215.784,347.651,215.784z M319.68,207.792h23.976v-23.976
		H319.68V207.792z"/>
	<path style="fill:#116FFF;" d="M59.94,263.736H27.973c-2.209,0-3.996-1.787-3.996-3.996v-31.968c0-2.209,1.787-3.996,3.996-3.996
		h31.968c2.208,0,3.996,1.787,3.996,3.996v31.968C63.936,261.949,62.149,263.736,59.94,263.736z M31.968,255.744h23.976v-23.976
		H31.968V255.744z"/>
	<path style="fill:#116FFF;" d="M107.892,263.736H75.924c-2.208,0-3.996-1.787-3.996-3.996v-31.968c0-2.209,1.787-3.996,3.996-3.996
		h31.968c2.208,0,3.996,1.787,3.996,3.996v31.968C111.888,261.949,110.1,263.736,107.892,263.736z M79.92,255.744h23.976v-23.976
		H79.92V255.744z"/>
	<path style="fill:#116FFF;" d="M155.844,263.736h-31.968c-2.209,0-3.996-1.787-3.996-3.996v-31.968
		c0-2.209,1.787-3.996,3.996-3.996h31.968c2.209,0,3.996,1.787,3.996,3.996v31.968C159.84,261.949,158.053,263.736,155.844,263.736z
		 M127.872,255.744h23.976v-23.976h-23.976V255.744z"/>
	<path style="fill:#116FFF;" d="M203.796,263.736h-31.968c-2.209,0-3.996-1.787-3.996-3.996v-31.968
		c0-2.209,1.787-3.996,3.996-3.996h31.968c2.208,0,3.996,1.787,3.996,3.996v31.968C207.792,261.949,206.004,263.736,203.796,263.736
		z M175.824,255.744H199.8v-23.976h-23.976V255.744z"/>
	<path style="fill:#116FFF;" d="M251.747,263.736h-31.968c-2.208,0-3.996-1.787-3.996-3.996v-31.968
		c0-2.209,1.788-3.996,3.996-3.996h31.968c2.208,0,3.996,1.787,3.996,3.996v31.968C255.744,261.949,253.956,263.736,251.747,263.736
		z M223.775,255.744h23.977v-23.976h-23.977V255.744z"/>
	<path style="fill:#116FFF;" d="M299.699,263.736h-31.968c-2.208,0-3.996-1.787-3.996-3.996v-31.968
		c0-2.209,1.788-3.996,3.996-3.996h31.968c2.209,0,3.996,1.787,3.996,3.996v31.968C303.695,261.949,301.908,263.736,299.699,263.736
		z M271.727,255.744h23.976v-23.976h-23.976V255.744z"/>
	<path style="fill:#116FFF;" d="M347.651,263.736h-31.968c-2.209,0-3.996-1.787-3.996-3.996v-31.968
		c0-2.209,1.787-3.996,3.996-3.996h31.968c2.209,0,3.996,1.787,3.996,3.996v31.968C351.647,261.949,349.86,263.736,347.651,263.736z
		 M319.68,255.744h23.976v-23.976H319.68V255.744z"/>
	<path style="fill:#116FFF;" d="M59.94,311.687H27.973c-2.209,0-3.996-1.787-3.996-3.996v-31.967c0-2.209,1.787-3.996,3.996-3.996
		h31.968c2.208,0,3.996,1.787,3.996,3.996v31.967C63.936,309.9,62.149,311.687,59.94,311.687z M31.968,303.695h23.976v-23.977
		H31.968V303.695z"/>
	<path style="fill:#116FFF;" d="M107.892,311.687H75.924c-2.208,0-3.996-1.787-3.996-3.996v-31.967c0-2.209,1.787-3.996,3.996-3.996
		h31.968c2.208,0,3.996,1.787,3.996,3.996v31.967C111.888,309.9,110.1,311.687,107.892,311.687z M79.92,303.695h23.976v-23.977
		H79.92V303.695z"/>
	<path style="fill:#116FFF;" d="M155.844,311.687h-31.968c-2.209,0-3.996-1.787-3.996-3.996v-31.967
		c0-2.209,1.787-3.996,3.996-3.996h31.968c2.209,0,3.996,1.787,3.996,3.996v31.967C159.84,309.9,158.053,311.687,155.844,311.687z
		 M127.872,303.695h23.976v-23.977h-23.976V303.695z"/>
	<path style="fill:#116FFF;" d="M203.796,311.687h-31.968c-2.209,0-3.996-1.787-3.996-3.996v-31.967
		c0-2.209,1.787-3.996,3.996-3.996h31.968c2.208,0,3.996,1.787,3.996,3.996v31.967C207.792,309.9,206.004,311.687,203.796,311.687z
		 M175.824,303.695H199.8v-23.977h-23.976V303.695z"/>
	<path style="fill:#116FFF;" d="M251.747,311.687h-31.968c-2.208,0-3.996-1.787-3.996-3.996v-31.967
		c0-2.209,1.788-3.996,3.996-3.996h31.968c2.208,0,3.996,1.787,3.996,3.996v31.967C255.744,309.9,253.956,311.687,251.747,311.687z
		 M223.775,303.695h23.977v-23.977h-23.977V303.695z"/>
	<path style="fill:#116FFF;" d="M299.699,311.687h-31.968c-2.208,0-3.996-1.787-3.996-3.996v-31.967
		c0-2.209,1.788-3.996,3.996-3.996h31.968c2.209,0,3.996,1.787,3.996,3.996v31.967C303.695,309.9,301.908,311.687,299.699,311.687z
		 M271.727,303.695h23.976v-23.977h-23.976V303.695z"/>
	<path style="fill:#116FFF;" d="M347.651,311.687h-31.968c-2.209,0-3.996-1.787-3.996-3.996v-31.967
		c0-2.209,1.787-3.996,3.996-3.996h31.968c2.209,0,3.996,1.787,3.996,3.996v31.967C351.647,309.9,349.86,311.687,347.651,311.687z
		 M319.68,303.695h23.976v-23.977H319.68V303.695z"/>
	<path style="fill:#116FFF;" d="M155.844,359.639h-31.968c-2.209,0-3.996-1.787-3.996-3.996v-31.967
		c0-2.209,1.787-3.996,3.996-3.996h31.968c2.209,0,3.996,1.787,3.996,3.996v31.967C159.84,357.851,158.053,359.639,155.844,359.639z
		 M127.872,351.648h23.976v-23.977h-23.976V351.648z"/>
	<path style="fill:#116FFF;" d="M203.796,359.639h-31.968c-2.209,0-3.996-1.787-3.996-3.996v-31.967
		c0-2.209,1.787-3.996,3.996-3.996h31.968c2.208,0,3.996,1.787,3.996,3.996v31.967C207.792,357.851,206.004,359.639,203.796,359.639
		z M175.824,351.648H199.8v-23.977h-23.976V351.648z"/>
	<path style="fill:#116FFF;" d="M251.747,359.639h-31.968c-2.208,0-3.996-1.787-3.996-3.996v-31.967
		c0-2.209,1.788-3.996,3.996-3.996h31.968c2.208,0,3.996,1.787,3.996,3.996v31.967C255.744,357.851,253.956,359.639,251.747,359.639
		z M223.775,351.648h23.977v-23.977h-23.977V351.648z"/>
	<path style="fill:#116FFF;" d="M299.699,359.639h-31.968c-2.208,0-3.996-1.787-3.996-3.996v-31.967
		c0-2.209,1.788-3.996,3.996-3.996h31.968c2.209,0,3.996,1.787,3.996,3.996v31.967C303.695,357.851,301.908,359.639,299.699,359.639
		z M271.727,351.648h23.976v-23.977h-23.976V351.648z"/>
	<path style="fill:#116FFF;" d="M155.844,407.592h-31.968c-2.209,0-3.996-1.787-3.996-3.996v-31.969
		c0-2.209,1.787-3.996,3.996-3.996h31.968c2.209,0,3.996,1.787,3.996,3.996v31.969C159.84,405.805,158.053,407.592,155.844,407.592z
		 M127.872,399.599h23.976v-23.977h-23.976V399.599z"/>
	<path style="fill:#116FFF;" d="M203.796,407.592h-31.968c-2.209,0-3.996-1.787-3.996-3.996v-31.969
		c0-2.209,1.787-3.996,3.996-3.996h31.968c2.208,0,3.996,1.787,3.996,3.996v31.969C207.792,405.805,206.004,407.592,203.796,407.592
		z M175.824,399.599H199.8v-23.977h-23.976V399.599z"/>
	<path style="fill:#116FFF;" d="M251.747,407.592h-31.968c-2.208,0-3.996-1.787-3.996-3.996v-31.969
		c0-2.209,1.788-3.996,3.996-3.996h31.968c2.208,0,3.996,1.787,3.996,3.996v31.969C255.744,405.805,253.956,407.592,251.747,407.592
		z M223.775,399.599h23.977v-23.977h-23.977V399.599z"/>
	<path style="fill:#116FFF;" d="M299.699,407.592h-31.968c-2.208,0-3.996-1.787-3.996-3.996v-31.969
		c0-2.209,1.788-3.996,3.996-3.996h31.968c2.209,0,3.996,1.787,3.996,3.996v31.969C303.695,405.805,301.908,407.592,299.699,407.592
		z M271.727,399.599h23.976v-23.977h-23.976V399.599z"/>
	<path style="fill:#116FFF;" d="M371.627,447.551H3.996c-2.208,0-3.996-1.787-3.996-3.996s1.787-3.996,3.996-3.996h367.631
		c2.209,0,3.996,1.787,3.996,3.996S373.836,447.551,371.627,447.551z"/>
	<path style="fill:#116FFF;" d="M371.627,463.535H3.996c-2.208,0-3.996-1.787-3.996-3.996s1.787-3.996,3.996-3.996h367.631
		c2.209,0,3.996,1.787,3.996,3.996S373.836,463.535,371.627,463.535z"/>
	<path style="fill:#116FFF;" d="M67.928,431.566c-1.022,0-2.044-0.389-2.825-1.17L1.171,366.461c-1.561-1.561-1.561-4.09,0-5.65
		c1.561-1.561,4.09-1.561,5.651,0l63.932,63.936c1.561,1.561,1.561,4.09,0,5.65C69.973,431.178,68.951,431.566,67.928,431.566z"/>
	<path style="fill:#116FFF;" d="M67.932,431.566c-2.208,0-3.996-1.787-3.996-3.996v-63.936c0-2.209,1.787-3.996,3.996-3.996
		s3.996,1.787,3.996,3.996v63.936C71.928,429.779,70.14,431.566,67.932,431.566z"/>
	<path style="fill:#116FFF;" d="M67.932,367.631H3.996c-2.208,0-3.996-1.787-3.996-3.996s1.787-3.996,3.996-3.996h63.936
		c2.208,0,3.996,1.787,3.996,3.996S70.14,367.631,67.932,367.631z"/>
	<path style="fill:#116FFF;" d="M3.996,447.551c-2.208,0-3.996-1.787-3.996-3.996V385.95c0-2.209,1.787-3.996,3.996-3.996
		s3.996,1.787,3.996,3.996v57.605C7.992,445.764,6.205,447.551,3.996,447.551z"/>
	<path style="fill:#116FFF;" d="M59.94,327.672H27.973c-2.209,0-3.996-1.787-3.996-3.996s1.787-3.996,3.996-3.996h31.968
		c2.208,0,3.996,1.787,3.996,3.996S62.149,327.672,59.94,327.672z"/>
	<path style="fill:#116FFF;" d="M59.94,351.648c-2.209,0-3.996-1.789-3.996-3.996v-23.977c0-2.209,1.787-3.996,3.996-3.996
		c2.208,0,3.996,1.787,3.996,3.996v23.977C63.936,349.859,62.149,351.648,59.94,351.648z"/>
	<path style="fill:#116FFF;" d="M27.973,351.648c-2.209,0-3.996-1.789-3.996-3.996v-23.977c0-2.209,1.787-3.996,3.996-3.996
		c2.208,0,3.996,1.787,3.996,3.996v23.977C31.968,349.859,30.181,351.648,27.973,351.648z"/>
	<path style="fill:#116FFF;" d="M75.924,351.648c-2.208,0-3.996-1.789-3.996-3.996v-23.977c0-2.209,1.787-3.996,3.996-3.996
		s3.996,1.787,3.996,3.996v23.977C79.92,349.859,78.133,351.648,75.924,351.648z"/>
	<path style="fill:#116FFF;" d="M107.892,327.672H75.924c-2.208,0-3.996-1.787-3.996-3.996s1.787-3.996,3.996-3.996h31.968
		c2.208,0,3.996,1.787,3.996,3.996S110.1,327.672,107.892,327.672z"/>
	<path style="fill:#116FFF;" d="M107.892,359.639c-2.208,0-3.996-1.787-3.996-3.996v-31.967c0-2.209,1.788-3.996,3.996-3.996
		s3.996,1.787,3.996,3.996v31.967C111.888,357.851,110.1,359.639,107.892,359.639z"/>
	<path style="fill:#116FFF;" d="M107.892,359.639H83.916c-2.208,0-3.996-1.787-3.996-3.996c0-2.207,1.788-3.994,3.996-3.994h23.976
		c2.208,0,3.996,1.787,3.996,3.994C111.888,357.851,110.1,359.639,107.892,359.639z"/>
	<path style="fill:#116FFF;" d="M107.892,407.592c-2.208,0-3.996-1.787-3.996-3.996v-31.969c0-2.209,1.788-3.996,3.996-3.996
		s3.996,1.787,3.996,3.996v31.969C111.888,405.805,110.1,407.592,107.892,407.592z"/>
	<path style="fill:#116FFF;" d="M107.892,407.592H83.916c-2.208,0-3.996-1.787-3.996-3.996s1.788-3.996,3.996-3.996h23.976
		c2.208,0,3.996,1.787,3.996,3.996S110.1,407.592,107.892,407.592z"/>
	<path style="fill:#116FFF;" d="M107.892,375.623H83.916c-2.208,0-3.996-1.787-3.996-3.996s1.788-3.996,3.996-3.996h23.976
		c2.208,0,3.996,1.787,3.996,3.996S110.1,375.623,107.892,375.623z"/>
	<path style="fill:#116FFF;" d="M55.944,143.856H31.968c-2.208,0-3.996-1.787-3.996-3.996c0-2.208,1.787-3.996,3.996-3.996h23.976
		c2.208,0,3.996,1.788,3.996,3.996C59.94,142.069,58.153,143.856,55.944,143.856z"/>
	<path style="fill:#116FFF;" d="M103.896,143.856H79.92c-2.208,0-3.996-1.787-3.996-3.996c0-2.208,1.788-3.996,3.996-3.996h23.976
		c2.208,0,3.996,1.788,3.996,3.996C107.892,142.069,106.104,143.856,103.896,143.856z"/>
	<path style="fill:#116FFF;" d="M151.848,143.856h-23.976c-2.209,0-3.996-1.787-3.996-3.996c0-2.208,1.787-3.996,3.996-3.996h23.976
		c2.209,0,3.996,1.788,3.996,3.996C155.844,142.069,154.056,143.856,151.848,143.856z"/>
	<path style="fill:#116FFF;" d="M199.8,143.856h-23.976c-2.209,0-3.996-1.787-3.996-3.996c0-2.208,1.787-3.996,3.996-3.996H199.8
		c2.209,0,3.996,1.788,3.996,3.996C203.796,142.069,202.009,143.856,199.8,143.856z"/>
	<path style="fill:#116FFF;" d="M247.752,143.856h-23.977c-2.208,0-3.996-1.787-3.996-3.996c0-2.208,1.787-3.996,3.996-3.996h23.977
		c2.208,0,3.996,1.788,3.996,3.996C251.747,142.069,249.96,143.856,247.752,143.856z"/>
	<path style="fill:#116FFF;" d="M295.703,143.856h-23.976c-2.209,0-3.996-1.787-3.996-3.996c0-2.208,1.787-3.996,3.996-3.996h23.976
		c2.209,0,3.996,1.788,3.996,3.996C299.699,142.069,297.912,143.856,295.703,143.856z"/>
	<path style="fill:#116FFF;" d="M343.655,143.856h-23.976c-2.209,0-3.996-1.787-3.996-3.996c0-2.208,1.787-3.996,3.996-3.996h23.976
		c2.209,0,3.996,1.788,3.996,3.996C347.651,142.069,345.864,143.856,343.655,143.856z"/>
	<path style="fill:#116FFF;" d="M67.932,119.88c-6.611,0-11.988-5.377-11.988-11.988V59.94c0-6.611,5.377-11.988,11.988-11.988
		S79.92,53.329,79.92,59.94v47.952C79.92,114.503,74.543,119.88,67.932,119.88z M67.932,55.945c-2.205,0-3.996,1.795-3.996,3.996
		v47.952c0,2.201,1.791,3.996,3.996,3.996s3.996-1.795,3.996-3.996V59.94C71.928,57.74,70.137,55.945,67.932,55.945z"/>
	<path style="fill:#116FFF;" d="M147.852,119.88c-6.611,0-11.988-5.377-11.988-11.988V59.94c0-6.611,5.377-11.988,11.988-11.988
		c6.61,0,11.988,5.377,11.988,11.988v47.952C159.84,114.503,154.462,119.88,147.852,119.88z M147.852,55.945
		c-2.205,0-3.996,1.795-3.996,3.996v47.952c0,2.201,1.792,3.996,3.996,3.996s3.996-1.795,3.996-3.996V59.94
		C151.848,57.74,150.056,55.945,147.852,55.945z"/>
	<path style="fill:#116FFF;" d="M227.771,119.88c-6.61,0-11.988-5.377-11.988-11.988V59.94c0-6.611,5.377-11.988,11.988-11.988
		s11.988,5.377,11.988,11.988v47.952C239.76,114.503,234.382,119.88,227.771,119.88z M227.771,55.945
		c-2.205,0-3.996,1.795-3.996,3.996v47.952c0,2.201,1.792,3.996,3.996,3.996c2.205,0,3.996-1.795,3.996-3.996V59.94
		C231.767,57.74,229.976,55.945,227.771,55.945z"/>
	<path style="fill:#116FFF;" d="M307.691,119.88c-6.61,0-11.988-5.377-11.988-11.988V59.94c0-6.611,5.378-11.988,11.988-11.988
		s11.988,5.377,11.988,11.988v47.952C319.68,114.503,314.302,119.88,307.691,119.88z M307.691,55.945
		c-2.201,0-3.996,1.795-3.996,3.996v47.952c0,2.201,1.795,3.996,3.996,3.996s3.996-1.795,3.996-3.996V59.94
		C311.687,57.74,309.892,55.945,307.691,55.945z"/>
	<path style="fill:#116FFF;" d="M123.876,87.912H91.908c-2.209,0-3.996-1.788-3.996-3.996c0-2.209,1.787-3.996,3.996-3.996h31.968
		c2.209,0,3.996,1.787,3.996,3.996S126.085,87.912,123.876,87.912z"/>
	<path style="fill:#116FFF;" d="M203.796,87.912h-31.968c-2.209,0-3.996-1.788-3.996-3.996c0-2.209,1.787-3.996,3.996-3.996h31.968
		c2.208,0,3.996,1.787,3.996,3.996S206.004,87.912,203.796,87.912z"/>
	<path style="fill:#116FFF;" d="M283.716,87.912h-31.968c-2.208,0-3.996-1.788-3.996-3.996c0-2.209,1.787-3.996,3.996-3.996h31.968
		c2.208,0,3.995,1.787,3.995,3.996C287.711,86.125,285.924,87.912,283.716,87.912z"/>
	<path style="fill:#116FFF;" d="M507.491,423.576H363.635c-2.208,0-3.995-1.789-3.995-3.996c0-2.209,1.787-3.996,3.995-3.996
		h143.856c2.208,0,3.995,1.787,3.995,3.996C511.486,421.787,509.699,423.576,507.491,423.576z"/>
	<path style="fill:#116FFF;" d="M363.635,423.576c-0.554,0-1.107-0.109-1.639-0.352c-2.014-0.906-2.911-3.271-2.006-5.285
		l35.964-79.918c0.905-2.021,3.294-2.904,5.284-2.006c2.014,0.904,2.911,3.27,2.006,5.283l-35.964,79.92
		C366.617,422.701,365.157,423.576,363.635,423.576z"/>
	<path style="fill:#116FFF;" d="M507.491,423.576c-1.522,0-2.981-0.875-3.646-2.357l-35.963-79.92
		c-0.906-2.014-0.008-4.379,2.005-5.283c1.99-0.898,4.379-0.016,5.284,2.006l35.964,79.918c0.905,2.014,0.008,4.379-2.006,5.285
		C508.599,423.467,508.045,423.576,507.491,423.576z"/>
	<path style="fill:#116FFF;" d="M379.619,335.664c-0.601,0-1.21-0.133-1.787-0.422c-1.975-0.992-2.771-3.387-1.787-5.361
		l55.943-111.888c0.991-1.967,3.388-2.771,5.362-1.787c1.975,0.991,2.771,3.387,1.787,5.361l-55.944,111.888
		C382.491,334.851,381.078,335.664,379.619,335.664z"/>
	<path style="fill:#116FFF;" d="M491.507,335.664c-1.46,0-2.872-0.812-3.574-2.209l-55.944-111.888
		c-0.983-1.974-0.188-4.37,1.787-5.361c1.982-0.991,4.371-0.188,5.362,1.787l55.944,111.888c0.982,1.975,0.187,4.369-1.788,5.361
		C492.717,335.531,492.107,335.664,491.507,335.664z"/>
	<path style="fill:#116FFF;" d="M491.507,335.664H379.619c-2.209,0-3.996-1.787-3.996-3.996s1.787-3.996,3.996-3.996h111.888
		c2.209,0,3.996,1.787,3.996,3.996S493.716,335.664,491.507,335.664z"/>
	<path style="fill:#116FFF;" d="M419.579,463.535c-2.209,0-3.996-1.787-3.996-3.996V427.57c0-2.207,1.787-3.994,3.996-3.994
		s3.996,1.787,3.996,3.994v31.969C423.575,461.748,421.788,463.535,419.579,463.535z"/>
	<path style="fill:#116FFF;" d="M451.547,463.535h-31.968c-2.209,0-3.996-1.787-3.996-3.996s1.787-3.996,3.996-3.996h31.968
		c2.209,0,3.996,1.787,3.996,3.996S453.756,463.535,451.547,463.535z"/>
	<path style="fill:#116FFF;" d="M451.547,463.535c-2.209,0-3.996-1.787-3.996-3.996V427.57c0-2.207,1.787-3.994,3.996-3.994
		s3.996,1.787,3.996,3.994v31.969C455.543,461.748,453.756,463.535,451.547,463.535z"/>
</g>
<g>
</g>
<g>
</g>
<g>
</g>
<g>
</g>
<g>
</g>
<g>
</g>
<g>
</g>
<g>
</g>
<g>
</g>
<g>
</g>
<g>
</g>
<g>
</g>
<g>
</g>
<g>
</g>
<g>
</g>
</svg>
