<svg height="384pt" viewBox="0 0 384 384" width="384pt" xmlns="http://www.w3.org/2000/svg"><path d="m368 112v224c0 17.679688-14.320312 32-32 32h-288c-17.679688 0-32-14.320312-32-32v-224zm0 0" fill="#e0f7fa"/><path d="m96 16h240c17.679688 0 32 14.320312 32 32v64h-352v-64c0-17.679688 14.320312-32 32-32zm0 0" fill="#ff7043"/><g fill="#012e52"><path d="m336 0h-288c-26.472656 0-48 21.527344-48 48v288c0 26.472656 21.527344 48 48 48h288c26.472656 0 48-21.527344 48-48v-288c0-26.472656-21.527344-48-48-48zm-288 32h32v16c0 8.832031 7.167969 16 16 16s16-7.167969 16-16v-16h160v16c0 8.832031 7.167969 16 16 16s16-7.167969 16-16v-16h32c8.824219 0 16 7.175781 16 16v48h-320v-48c0-8.824219 7.175781-16 16-16zm288 320h-288c-8.824219 0-16-7.175781-16-16v-208h320v208c0 8.824219-7.175781 16-16 16zm0 0"/><path d="m154.703125 259.863281c13.328125-10.574219 21.296875-26.839843 21.296875-43.863281 0-30.878906-25.121094-56-56-56s-56 25.121094-56 56c0 8.832031 7.167969 16 16 16s16-7.167969 16-16c0-13.230469 10.769531-24 24-24s24 10.769531 24 24c0 7.503906-3.59375 14.679688-9.617188 19.214844-.152343.121094-.269531.265625-.414062.386718-.160156.125-.34375.214844-.496094.351563l-64 56c-5.015625 4.390625-6.785156 11.429687-4.441406 17.671875 2.335938 6.238281 8.304688 10.375 14.96875 10.375h80c8.832031 0 16-7.167969 16-16s-7.167969-16-16-16h-37.414062l31.949218-27.960938c.066406-.054687.105469-.117187.167969-.175781zm0 0"/><path d="m304 192c8.832031 0 16-7.167969 16-16s-7.167969-16-16-16h-56c-7.34375 0-13.742188 5-15.519531 12.121094l-15.984375 63.941406c-.265625 1.058594-.425782 2.121094-.472656 3.195312-.023438.445313.039062.886719.066406 1.335938.023437.582031.015625 1.167969.09375 1.75.082031.519531.242187 1.007812.367187 1.519531.128907.496094.210938 1 .386719 1.488281.167969.464844.398438.886719.605469 1.328126.234375.496093.425781 1 .703125 1.472656.289062.488281.648437.917968.992187 1.367187.28125.375.515625.769531.832031 1.128907 1.402344 1.566406 3.113282 2.878906 5.082032 3.808593.953125.453125 1.9375.800781 2.9375 1.054688.015625.007812.03125.015625.046875.015625 1.160156.289062 2.34375.410156 3.527343.433594.121094 0 .246094.046874.375.046874.546876 0 1.082032-.078124 1.617188-.136718.253906-.023438.511719-.023438.769531-.0625 1.917969-.296875 3.75-.929688 5.421875-1.871094.273438-.152344.527344-.34375.792969-.511719.558594-.363281 1.09375-.738281 1.605469-1.160156.265625-.226563.523437-.464844.777344-.707031.488281-.460938.945312-.957032 1.375-1.488282.136718-.160156.296874-.285156.425781-.453124 4.496093-6.023438 11.679687-9.617188 19.175781-9.617188 13.230469 0 24 10.769531 24 24s-10.769531 24-24 24c-7.503906 0-14.679688-3.59375-19.207031-9.617188-5.3125-7.054687-15.328125-8.480468-22.410157-3.167968-7.0625 5.3125-8.488281 15.335937-3.167968 22.402344 10.546875 14.015624 27.289062 22.382812 44.785156 22.382812 30.871094 0 56-25.121094 56-56s-25.128906-56-56-56c-2.574219 0-5.128906.230469-7.65625.59375l4.152344-16.59375zm0 0"/></g></svg>