<svg height="511pt" viewBox="0 -2 511.99982 511" width="511pt" xmlns="http://www.w3.org/2000/svg"><path d="m214.78125 47.042969v-12.898438c0-4.140625-3.355469-7.5-7.5-7.5-4.140625 0-7.5 3.359375-7.5 7.5v12.902344c0 4.140625 3.359375 7.5 7.5 7.5 4.144531 0 7.5-3.359375 7.5-7.503906zm0 0"/><path d="m357.34375 47.042969v-12.898438c0-4.140625-3.359375-7.5-7.5-7.5-4.144531 0-7.503906 3.359375-7.503906 7.5v12.902344c0 4.140625 3.359375 7.5 7.503906 7.5 4.140625 0 7.5-3.359375 7.5-7.503906zm0 0"/><path d="m278.5625 61.433594c9.023438 0 17.492188-3.773438 23.242188-10.347656 2.726562-3.121094 2.40625-7.859376-.710938-10.585938-3.121094-2.726562-7.859375-2.410156-10.585938.710938-2.898437 3.316406-7.253906 5.21875-11.945312 5.21875s-9.046875-1.902344-11.945312-5.21875c-2.726563-3.121094-7.464844-3.4375-10.585938-.710938-3.117188 2.726562-3.4375 7.464844-.710938 10.585938 5.75 6.574218 14.222657 10.347656 23.242188 10.347656zm0 0"/><path d="m146.925781 389.753906h93.21875c9.886719 0 18.234375-10.386718 18.234375-22.6875 0-12.222656-8.179687-22.164062-18.234375-22.164062h-65.167969c1.394532-7.066406 14.414063-16.09375 27.023438-24.84375 24.886719-17.261719 55.855469-38.742188 55.855469-76.058594 0-39.394531-34.085938-60.65625-66.152344-60.65625-16.429687 0-31.953125 5.160156-43.722656 14.53125-12.945313 10.308594-20.078125 24.921875-20.078125 41.152344 0 16.414062 8.367187 25.828125 22.949218 25.828125 16.4375 0 25.308594-10.339844 25.308594-20.070313 0-10.3125 5.316406-15.539062 15.804688-15.539062 16.375 0 16.847656 14.183594 16.847656 15.800781 0 14.070313-18.851562 27.839844-37.082031 41.15625-23.21875 16.960937-47.230469 34.496094-47.230469 59.917969v25.398437c0 11.742188 13.261719 18.234375 22.425781 18.234375zm-7.421875-43.632812c0-17.800782 20.882813-33.054688 41.074219-47.804688 21.257813-15.527344 43.238281-31.582031 43.238281-53.269531 0-7.621094-2.753906-15.136719-7.554687-20.621094-4.070313-4.644531-11.589844-10.183593-24.296875-10.183593-18.714844 0-30.808594 11.988281-30.808594 30.542968 0 1.710938-3.109375 5.066406-10.304688 5.066406-3.90625 0-7.945312 0-7.945312-10.824218 0-26.421875 25.140625-40.679688 48.796875-40.679688 33.582031 0 51.148437 22.964844 51.148437 45.652344 0 29.464844-26.246093 47.667969-49.402343 63.730469-18.027344 12.507812-33.597657 23.308593-33.597657 38.390625v6.28125c0 4.144531 3.355469 7.503906 7.5 7.503906l72.773438-.003906c.835938.132812 3.253906 2.800781 3.253906 7.164062 0 4.289063-2.320312 7.320313-3.324218 7.6875h-93.125c-3.273438 0-6.980469-2.214844-7.425782-3.300781zm0 0"/><path d="m323.410156 346.472656c-3.253906 0-19.46875-.597656-19.46875-12.398437 0-13.664063-8.253906-20.59375-24.523437-20.59375s-24.519531 7.722656-24.519531 22.953125c0 14.785156 6.582031 28.480468 18.539062 38.5625 12.667969 10.683594 30.222656 16.332031 50.757812 16.332031 43.539063 0 68.507813-24.210937 68.507813-66.417969v-4.972656c0-21.738281-6.933594-38.320312-20.613281-49.285156-11.792969-9.457032-28.082032-14.25-48.417969-14.25h-12.097656l2.050781-28.203125h51.941406c10.429688 0 17.714844-9.222657 17.714844-22.425781 0-12.996094-7.453125-22.429688-17.714844-22.429688 0 0-80.207031 0-80.648437 0-9.488281 0-13.367188 9.574219-14.015625 17.566406 0 0-6.804688 68.796875-6.804688 68.800782-.242187 2.472656-.296875 5.058593-.296875 7.542968 0 13.449219 7.5 20.859375 21.117188 20.859375h38.753906c13.640625 0 19.992187 6.933594 19.992187 21.824219v4.976562c-.003906 14.910157-6.25 21.558594-20.253906 21.558594zm.261719-63.367187h-38.753906c-3.125 0-4.746094-.570313-5.222657-1.109375-.210937-.234375-.890624-1.273438-.890624-4.742188 0-2.140625.238281-4.273437.257812-6.417968l6.773438-68.515626c.003906-.046874.007812-.09375.011718-.140624.152344-1.914063.433594-3.117188.667969-3.832032h79.050781c1.066406 0 2.710938 3.1875 2.710938 7.421875 0 4.113281-1.484375 7.425781-2.710938 7.425781h-58.917968c-3.929688 0-7.195313 3.035157-7.480469 6.957032 0 0-3.136719 43.171875-3.140625 43.203125-.3125 4.28125 3.195312 8.046875 7.480468 8.046875h20.160157c35.855469 0 54.035156 16.328125 54.035156 48.53125v4.976562c0 42.492188-29.101563 51.414063-53.511719 51.414063-37.300781 0-54.292968-20.679688-54.292968-39.894531 0-2.292969.296874-5.269532 1.703124-6.410157.867188-.699219 2.925782-1.535156 7.816407-1.535156 9.519531 0 9.519531 1.984375 9.519531 5.589844 0 16.390625 13.851562 27.402343 34.46875 27.402343 22.40625 0 35.257812-13.328124 35.257812-36.566406v-4.976562c0-23.058594-13.082031-36.828125-34.992187-36.828125zm0 0"/><path d="m53.832031 456.425781v16.191407c0 18.777343 15.273438 34.050781 34.050781 34.050781h249.328126c4.140624 0 7.5-3.359375 7.5-7.5 0-4.144531-3.359376-7.503907-7.5-7.503907h-249.328126c-10.503906 0-19.046874-8.542968-19.046874-19.046874v-16.191407h308.289062c30.234375 0 58.960938-17.007812 73.398438-43.574219 5.945312-10.949218 9.410156-23.566406 13.148437-35.527343 10.3125-33.027344 18.34375-66.820313 24.425781-100.875.0625-.34375.128906-.695313.191406-1.035157v197.203126c0 10.503906-8.546874 19.046874-19.046874 19.046874h-102.027344c-4.140625 0-7.5 3.359376-7.5 7.503907 0 4.140625 3.359375 7.5 7.5 7.5h102.027344c18.773437 0 34.050781-15.273438 34.050781-34.050781v-399.125c5.566406-8.757813 8.707031-19.0625 8.707031-29.835938 0-23.796875-19.359375-43.15625-43.15625-43.15625h-300.660156c-4.140625 0-7.5 3.359375-7.5 7.5 0 4.144531 3.359375 7.503906 7.5 7.503906h300.660156c15.523438 0 28.152344 12.628906 28.152344 28.152344 0 15.632812-9.480469 30.492188-23.839844 37.003906-15.722656 7.132813-34.445312 7.191406-50.285156 0-19.734375-8.957031-42.949219-8.957031-62.683594 0-.050781.023438-.105469.042969-.15625.066406-15.75 7.015626-34.285156 7.125-50.128906-.066406-19.734375-8.957031-42.949219-8.957031-62.683594 0-.054688.023438-.105469.042969-.15625.066406-15.871094 7.070313-34.285156 7.128907-50.128906-.066406-19.738282-8.960937-42.941406-8.960937-62.683594 0-.050781.023438-.101562.042969-.152344.066406-7.832031 3.527344-16.398437 5.375-24.988281 5.375-24.59375 0-48.984375-15.835937-48.984375-42.445312 0-15.523438 12.628906-28.152344 28.152344-28.152344h49.902344c4.140624 0 7.5-3.359375 7.5-7.503906 0-4.140625-3.359376-7.5-7.5-7.5h-49.898438c-23.796875 0-43.15625 19.359375-43.15625 43.15625 0 10.773438 3.140625 21.078125 8.707031 29.835938v69.027343c-.113281 3.800781-4.855469 144.492188-51.621093 267.066407-8.496094 22.265624 8.609374 46.839843 32.34375 46.839843zm15.003907-367.203125c.039062.027344.082031.054688.125.082032 2.777343 1.929687 5.730468 3.621093 8.804687 5.019531.050781.023437.105469.039062.15625.0625 19.636719 8.984375 42.902344 8.84375 62.53125-.066407 15.847656-7.191406 34.433594-7.195312 50.28125.003907.050781.023437.105469.039062.15625.0625 19.667969 8.949219 42.871094 8.84375 62.527344-.066407 15.855469-7.195312 34.425781-7.1875 50.285156.003907.050781.023437.101563.039062.15625.066406 19.699219 8.917969 42.835937 8.867187 62.527344-.070313 15.902343-7.214843 34.371093-7.125 50.28125.003907.050781.023437.105469.039062.15625.0625 19.671875 8.953125 42.875 8.84375 62.53125-.066407 3.082031-1.398437 6.023437-3.082031 8.804687-5.011718.042969-.03125.085938-.058594.128906-.085938v45.90625h-419.453124zm-50.4375 343.707032c-3.699219-5.367188-4.488282-11.921876-2.171876-17.996094 42.300782-110.871094 50.808594-233.625 52.316407-264.804688h419.429687c1.023438 0-8.425781 85.496094-9.582031 93.214844-7.746094 51.75-19.246094 103.207031-36.710937 152.589844-9.621094 27.207031-35.5625 45.488281-64.554688 45.488281h-342.570312c-6.550782 0-12.441407-3.09375-16.15625-8.492187zm0 0"/></svg>