<svg height="512pt" viewBox="0 -3 512.00024 512" width="512pt" xmlns="http://www.w3.org/2000/svg"><path d="m279.277344 101.847656-223.75 36.820313v339.898437c0 15.105469 12.246094 27.347656 27.347656 27.347656h392.808594c15.101562 0 27.347656-12.242187 27.347656-27.347656v-339.898437zm0 0" fill="#e6e9ed"/><path d="m55.527344 138.667969v339.898437c0 .453125.015625.902344.035156 1.347656h325.238281c44.019531 0 83.429688-27.796874 98.0625-69.171874 9.871094-27.917969 17.796875-56.214844 24.167969-83.480469v-188.59375l-223.75-36.820313zm0 0" fill="#ccd1d9"/><path d="m279.277344 101.847656-223.75 36.820313s-4.042969 147.640625-53.679688 277.730469c-6.953125 18.230468 6.585938 37.761718 26.097656 37.761718h352.855469c33.113281 0 62.738281-20.785156 73.777344-52.003906 44.691406-126.378906 48.453125-263.488281 48.453125-263.488281zm0 0" fill="#e6e9ed"/><path d="m55.527344 47.308594h447.503906v91.363281h-447.503906zm0 0" fill="#ff7a7a"/><path d="m55.527344 100.171875c3.007812 1.925781 6.167968 3.65625 9.476562 5.15625 12.566406 5.703125 25.933594 8.597656 39.734375 8.597656s27.171875-2.894531 39.734375-8.597656c5.835938-2.648437 12.039063-3.988281 18.445313-3.988281s12.613281 1.339844 18.445312 3.988281c12.566407 5.703125 25.933594 8.597656 39.734375 8.597656 13.800782 0 27.171875-2.894531 39.734375-8.597656 5.835938-2.648437 12.039063-3.988281 18.445313-3.988281s12.609375 1.339844 18.445312 3.988281c12.566406 5.707031 25.933594 8.597656 39.734375 8.597656s27.171875-2.890625 39.738281-8.597656c5.832032-2.644531 12.039063-3.988281 18.441407-3.988281 6.40625 0 12.613281 1.34375 18.445312 3.992187 12.566407 5.703125 25.933594 8.597657 39.734375 8.597657 13.800782 0 27.171875-2.894532 39.738282-8.597657 3.308593-1.503906 6.46875-3.230469 9.472656-5.15625v-52.867187h-447.5zm0 0" fill="#d83a5c"/><path d="m475.273438 0h-391.988282c-20.28125 0-36.726562 16.441406-36.726562 36.726562 0 19.453126 11.375 37.109376 29.089844 45.148438 18.488281 8.394531 39.695312 8.394531 58.179687 0 18.488281-8.390625 39.695313-8.390625 58.183594 0 18.484375 8.394531 39.695312 8.394531 58.179687 0 18.484375-8.390625 39.695313-8.390625 58.179688 0 18.484375 8.394531 39.695312 8.394531 58.179687 0 18.488281-8.390625 39.695313-8.390625 58.183594 0 18.484375 8.394531 39.691406 8.394531 58.179687 0 17.710938-8.039062 29.085938-25.695312 29.085938-45.148438 0-20.285156-16.441406-36.726562-36.726562-36.726562zm0 0" fill="#e6e9ed"/><g fill="#434a53"><path d="m205.859375 47.941406c-4.265625 0-7.726563-3.457031-7.726563-7.726562v-13.285156c0-4.269532 3.460938-7.726563 7.726563-7.726563s7.726563 3.457031 7.726563 7.726563v13.285156c0 4.269531-3.460938 7.726562-7.726563 7.726562zm0 0"/><path d="m352.699219 47.941406c-4.265625 0-7.726563-3.457031-7.726563-7.726562v-13.285156c0-4.269532 3.460938-7.726563 7.726563-7.726563 4.269531 0 7.726562 3.457031 7.726562 7.726563v13.285156c0 4.269531-3.457031 7.726562-7.726562 7.726562zm0 0"/><path d="m279.277344 55.035156c-9.289063 0-18.015625-3.882812-23.9375-10.660156-2.808594-3.210938-2.480469-8.09375.734375-10.902344 3.210937-2.808594 8.09375-2.480468 10.902343.734375 2.984376 3.417969 7.46875 5.375 12.300782 5.375 4.835937 0 9.320312-1.957031 12.304687-5.375 2.808594-3.210937 7.691407-3.539062 10.902344-.730469 3.214844 2.804688 3.542969 7.6875.734375 10.902344-5.921875 6.769532-14.644531 10.65625-23.941406 10.65625zm0 0"/></g><path d="m189.8125 188.335938c31.285156 0 60.414062 20.496093 60.414062 54.75 0 58.253906-85.5 77.132812-85.5 105.183593v6.472657h74.980469c5.933594 0 11.058594 7.011718 11.058594 15.105468 0 8.089844-5.125 15.640625-11.058594 15.640625h-96.015625c-6.203125 0-15.375-4.3125-15.375-11.054687v-26.164063c0-43.152343 86.847656-66.078125 86.847656-104.105469 0-11.058593-7.28125-24.003906-25.082031-24.003906-13.21875 0-24.003906 7.011719-24.003906 23.730469 0 6.472656-6.742187 12.949219-18.339844 12.949219-9.171875 0-15.914062-4.316406-15.914062-18.878906 0-30.746094 28.050781-49.625 57.988281-49.625zm0 0" fill="#79c08c"/><path d="m325.742188 263.582031c35.601562 0 63.382812 15.375 63.382812 57.71875v5.125c0 44.230469-28.050781 60.683594-62.84375 60.683594-41.265625 0-63.648438-23.734375-63.648438-48.816406 0-12.410157 6.472657-15.914063 17.53125-15.914063 14.832032 0 17.53125 5.933594 17.53125 13.484375 0 13.214844 12.136719 20.5 27.777344 20.5 17.800782 0 28.589844-9.441406 28.589844-29.9375v-5.125c0-20.5-10.789062-30.207031-28.320312-30.207031h-39.917969c-11.054688 0-14.023438-5.394531-14.023438-13.757812 0-2.15625.269531-4.585938.269531-7.011719l7.011719-70.933594c.539063-6.742187 2.699219-11.058594 6.742188-11.058594h83.070312c7.011719 0 10.519531 7.824219 10.519531 15.375 0 7.820313-3.507812 15.375-10.519531 15.375h-60.683593l-3.234376 44.5zm0 0" fill="#79c08c"/></svg>