<svg height="512pt" viewBox="0 0 512 512" width="512pt" xmlns="http://www.w3.org/2000/svg"><path d="m61 359.480469v-146.960938c-34.191406 6.96875-61 37.265625-61 73.480469s26.808594 66.511719 61 73.480469zm0 0"/><path d="m256 0c-90.980469 0-165 75.019531-165 166v210c0 8.285156 6.714844 15 15 15h30c8.285156 0 15-6.714844 15-15v-180c0-8.285156-6.714844-15-15-15h-15v-15c0-74.441406 60.558594-136 135-136s135 61.558594 135 136v15h-15c-8.285156 0-15 6.714844-15 15v180c0 8.285156 6.714844 15 15 15h15v15c0 24.8125-20.1875 46-45 46h-47.761719c-6.214843-17.421875-22.707031-30-42.238281-30-24.8125 0-45 20.1875-45 45s20.1875 45 45 45c19.53125 0 36.023438-12.578125 42.238281-30h47.761719c41.351562 0 75-34.648438 75-76v-240c0-90.980469-74.019531-166-165-166zm0 0"/><path d="m451 212.519531v146.960938c34.191406-6.96875 61-37.265625 61-73.480469s-26.808594-66.511719-61-73.480469zm0 0"/></svg>