<?xml version="1.0" encoding="iso-8859-1"?>
<!-- Generator: Adobe Illustrator 16.0.0, SVG Export Plug-In . SVG Version: 6.00 Build 0)  -->
<!DOCTYPE svg PUBLIC "-//W3C//DTD SVG 1.1//EN" "http://www.w3.org/Graphics/SVG/1.1/DTD/svg11.dtd">
<svg version="1.1" id="Capa_1" xmlns="http://www.w3.org/2000/svg" xmlns:xlink="http://www.w3.org/1999/xlink" x="0px" y="0px"
	 width="372.855px" height="372.854px" viewBox="0 0 372.855 372.854" style="enable-background:new 0 0 372.855 372.854;"
	 xml:space="preserve">
<g>
	<g>
		<path d="M341.825,233.75c-21.179,1.307-49.048,22.477-75.929,34.648c-32.932,14.914-84.215,2.924-84.215,2.924
			c7.904-3.711,40.05-11.369,46.518-14.209c34.407-15.145,31.506-46.707,15.117-46.44c-21.664,0.362-34.367,5.678-77.571,11.569
			c-32.743,4.453-71.473,2.824-90.052,9.918C49.468,242.176,7.23,309.568,7.23,309.568l65.302,63.286
			c0,0,40.427-39.816,60.093-39.816c44.823,0,46.646-0.612,88.266-2.864c17.688-0.948,21.389-1.674,31.521-5.086
			c53.943-18.243,111.877-66.82,112.938-72.667C367.821,238.888,353.022,233.054,341.825,233.75z"/>
		<path d="M190.801,196.83c54.26,0,98.414-44.152,98.414-98.424C289.215,44.136,245.061,0,190.801,0
			c-54.272,0-98.42,44.136-98.42,98.406C92.381,152.678,136.529,196.83,190.801,196.83z M127.058,92.394H116.47
			c2.914-36.341,31.966-65.411,68.319-68.313v10.595c0,3.32,2.693,6.014,6.012,6.014s6.012-2.694,6.012-6.014V24.081
			c36.339,2.903,65.409,31.973,68.326,68.313h-10.598c-3.324,0-6.015,2.695-6.015,6.012c0,3.318,2.689,6.012,6.015,6.012h10.598
			c-2.917,36.34-31.987,65.414-68.326,68.315v-10.578c0-3.333-2.692-6.013-6.012-6.013c-3.317,0-6.012,2.679-6.012,6.013v10.578
			c-36.354-2.901-65.405-31.974-68.319-68.315h10.588c3.32,0,6.015-2.694,6.015-6.012C133.073,95.09,130.378,92.394,127.058,92.394z
			"/>
		<path d="M153.949,90.12l30.481,26.9c1.69,1.505,3.871,2.329,6.125,2.329c2.627,0,5.144-1.115,6.896-3.059l32.545-36.125
			c3.422-3.797,3.109-9.657-0.686-13.087c-1.703-1.524-3.906-2.37-6.191-2.37c-2.631,0-5.135,1.115-6.894,3.06l-25.707,29.31
			l-24.291-20.85c-1.694-1.508-3.87-2.331-6.136-2.331c-2.652,0-5.188,1.146-6.947,3.143c-1.636,1.859-2.462,4.227-2.299,6.695
			C150.996,86.204,152.104,88.479,153.949,90.12z"/>
	</g>
</g>
<g>
</g>
<g>
</g>
<g>
</g>
<g>
</g>
<g>
</g>
<g>
</g>
<g>
</g>
<g>
</g>
<g>
</g>
<g>
</g>
<g>
</g>
<g>
</g>
<g>
</g>
<g>
</g>
<g>
</g>
</svg>
