<svg height="681pt" viewBox="-22 -21 681 681.33076" width="681pt" xmlns="http://www.w3.org/2000/svg"><path d="m614.453125 263.292969c-13.585937-21.082031-36.105469-34.171875-60.921875-35.660157 7.292969-10.027343 11.609375-22.351562 11.609375-35.667968v-38.066406c0-.558594-.027344-1.117188-.042969-1.671876.007813-.21875.035156-.4375.035156-.65625-.503906-32.242187-27.140624-58.476562-59.382812-58.476562h-4c-32.804688 0-59.398438 26.59375-59.398438 59.402344v1.070312c0 .113282-.007812.21875-.007812.332032v38.066406c0 13.390625 4.363281 25.773437 11.71875 35.832031-18.296875 1.570313-35.292969 9.433594-48.429688 22.574219l-36.847656 36.847656c-4 4-10.324218 4.671875-15.070312 1.601562l-13.011719-8.9375c17.730469-28.859374 27.078125-61.824218 27.078125-96.027343 0-101.378907-82.476562-183.855469-183.847656-183.855469-46.1875 0-90.347656 17.199219-124.339844 48.421875-37.820312 34.742187-59.5117188 84.101563-59.5117188 135.433594 0 101.375 82.4765628 183.847656 183.8515628 183.847656 38.839844 0 75.667968-11.839844 106.960937-34.304687l53.484375 36.960937c.035156.027344.070313.050781.105469.074219 3.191406 2.160156 6.640625 3.722656 10.203125 4.769531 1.085938.578125 2.269531 1 3.539062 1.234375 11.691407 2.152344 23.746094-1.453125 32.308594-9.652344l28.757813-25.675781.355469 53.847656.507812 231.355469c0 .542969.046875 1.082031.117188 1.605469.097656.71875.238281 1.417969.449218 2.09375.007813.027343.015625.050781.027344.074219 1.238281 3.867187 4.308594 6.914062 8.191406 8.109374 1.160156.363282 2.398438.550782 3.679688.550782h137.988281c6.886719 0 12.464844-5.578125 12.464844-12.464844v-138.519531l8.753906-5.476563c28.457031-17.816406 45.738281-49.023437 45.738281-82.601562v-57.855469c0-27.914063-7.992187-55.070313-23.113281-78.535156zm-31.648437 119.144531v-57.953125c0-6.25-4.433594-11.832031-10.617188-12.726563-7.710938-1.105468-14.324219 4.84375-14.324219 12.335938v58.34375h-113.308593l-.105469-49.660156c.074219-8.570313-4.957031-16.289063-12.835938-19.683594-7.816406-3.367188-16.800781-1.769531-22.972656 4.058594l-34.621094 30.90625c-.136719.117187-.269531.242187-.394531.367187-.21875.210938-.441406.410157-.671875.597657v-35.386719c4.902344-1.832031 9.398437-4.707031 13.191406-8.5l36.847657-36.847657c9.980468-9.976562 23.507812-15.578124 37.617187-15.578124h28.664063v44.933593c0 6.25 4.429687 11.835938 10.617187 12.726563 7.707031 1.105468 14.320313-4.84375 14.320313-12.335938v-45.332031h34.292968c18.164063 0 34.878906 9.121094 44.71875 24.382813 12.515625 19.425781 19.136719 41.910156 19.136719 65.019531v40.332031zm-115.523438-190.472656v-12.832032c5.601562.953126 10.675781 1.453126 15.207031 1.453126 5.734375 0 10.628907-.765626 14.757813-2.285157 2.808594-1.035156 5.546875-2.085937 8.226562-3.121093 13.273438-5.105469 23.761719-9.140626 32.332032-7.125.785156.1875 1.585937.316406 2.398437.402343v23.507813c0 18.113281-13.496094 33.121094-30.964844 35.527344h-11c-17.460937-2.40625-30.957031-17.414063-30.957031-35.527344zm37.054688-73.933594c15.941406 0 29.480468 10.457031 34.132812 24.875-14.195312-1.667969-27.71875 3.527344-41.949219 9-2.574219.988281-5.199219 1.996094-7.894531 2.992188-2.992188 1.101562-10 1.210937-21.335938-1.152344v-.183594c.179688-19.621094 16.195313-35.53125 35.859376-35.53125zm-320.402344 224.738281c-87.628906 0-158.914063-71.292969-158.914063-158.914062 0-44.371094 18.75-87.039063 51.445313-117.070313 29.378906-26.984375 67.546875-41.847656 107.46875-41.847656 87.625 0 158.910156 71.289062 158.910156 158.917969 0 29.132812-7.828125 57.222656-22.710938 81.894531l-15.398437-10.574219c-.066406-.050781-.132813-.097656-.207031-.140625-1.785156-1.175781-3.636719-2.203125-5.535156-3.113281 17.070312-28.699219 22.761718-62.710937 15.515624-97.527344-11.433593-54.929687-57.199218-96.1875-112.875-103.089843-26.210937-3.246094-51.410156.679687-74.480468 11.527343-5.753906 2.703125-9.007813 9.167969-7.078125 15.226563 2.347656 7.371094 10.519531 10.746094 17.253906 7.539062 10.847656-5.148437 22.285156-8.414062 34.132813-9.753906v22.140625c0 6.246094 4.433593 11.832031 10.621093 12.722656 7.707031 1.105469 14.320313-4.84375 14.320313-12.335937v-22.519532c50.128906 5.75 89.996094 45.730469 95.570312 95.917969h-21.78125c-6.25 0-11.835937 4.429688-12.726562 10.617188-1.105469 7.707031 4.84375 14.320312 12.335937 14.320312h22.09375c-2.144531 18.414063-8.917969 35.773438-19.917969 50.910157-2.3125.3125-4.625.78125-6.898437 1.4375l-.269531.078124c-11.335938 3.269532-19.433594 13.382813-20.3125 25.019532-14.472656 9.738281-30.847656 15.75-48.09375 17.710937v-21.371093c0-6.246094-4.433594-11.832032-10.617188-12.722657-7.710937-1.109375-14.320312 4.84375-14.320312 12.332031v21.75c-49.875-5.722656-89.59375-45.328124-95.484375-95.144531h21.695312c6.25 0 11.835938-4.4375 12.722657-10.621093 1.105468-7.707032-4.84375-14.316407-12.332032-14.316407h-22.164062c.898437-8.1875 2.707031-16.222656 5.4375-23.992187 2.285156-6.496094-1.128906-13.617188-7.625-15.902344s-13.617188 1.132812-15.898438 7.628906c-5.140625 14.617188-7.679687 29.96875-7.535156 45.609375.671875 73.429688 61.5 133.074219 134.933594 132.390625 23.230468-.21875 45.542968-6.328125 65.378906-17.792968 3.5625 6.308593 8.558594 11.824218 14.742188 16.019531l3.53125 2.441406c-25.355469 16.117187-54.417969 24.597656-84.933594 24.597656zm95.535156-47.585937c-.035156-.023438-.070312-.046875-.101562-.070313-6.214844-4.203125-14.195313-14.996093-8.492188-20.703125 5.558594-5.554687 14.304688-2.210937 19.855469 1.394532l48.980469 33.65625c.074218.046874.140624.089843.210937.140624 2.5625 1.683594 5.289063 2.992188 8.09375 3.96875v28.988282zm278.667969 318.632812h-43.429688v-164.085937c0-6.246094-4.433593-11.832031-10.617187-12.722657-7.710938-1.105468-14.320313 4.84375-14.320313 12.335938v164.472656h-44.707031l-.449219-206.441406h113.523438zm24.9375-155.71875v-50.722656h29.148437c-2.125 20.300781-12.613281 38.605469-29.148437 50.722656zm0 0"/><path d="m509.457031 335.28125-.316406-.242188c-5.480469-4.175781-13.296875-3.117187-17.472656 2.359376-4.179688 5.472656-3.121094 13.296874 2.351562 17.46875l.320313.246093c2.257812 1.71875 4.914062 2.550781 7.550781 2.550781 3.757813 0 7.46875-1.6875 9.925781-4.910156 4.171875-5.472656 3.121094-13.292968-2.359375-17.472656zm0 0"/><path d="m87.496094 113.53125.320312.242188c2.25 1.710937 4.898438 2.53125 7.519532 2.53125 3.765624 0 7.496093-1.703126 9.945312-4.941407 4.15625-5.484375 3.082031-13.308593-2.40625-17.464843l-.320312-.242188c-5.488282-4.15625-13.3125-3.082031-17.46875 2.40625-4.160157 5.488281-3.078126 13.308594 2.410156 17.46875zm0 0"/><path d="m169.386719 183.136719-26.59375 39.539062c-3.847657 5.710938-2.332031 13.460938 3.382812 17.304688 2.132813 1.433593 4.554688 2.125 6.949219 2.125 4.007812 0 7.945312-1.933594 10.355469-5.511719l30.796875-45.78125c.003906-.011719.015625-.023438.019531-.03125.1875-.277344.351563-.5625.511719-.847656.042968-.085938.097656-.164063.140625-.246094.117187-.21875.214843-.449219.324219-.675781.542968-1.199219.890624-2.449219 1.035156-3.710938.007812-.078125.027344-.148437.03125-.226562.019531-.199219.023437-.402344.035156-.601563.007812-.203125.027344-.414062.027344-.621094 0-.070312-.007813-.132812-.007813-.195312-.019531-1.308594-.253906-2.617188-.699219-3.894531-.070312-.214844-.140624-.429688-.226562-.640625-.039062-.101563-.09375-.203125-.144531-.304688-.125-.285156-.25-.5625-.398438-.839844-.003906-.011718-.007812-.027343-.019531-.042968l-36.007812-66.804688c-3.269532-6.0625-10.832032-8.328125-16.894532-5.0625-6.058594 3.269532-8.324218 10.835938-5.058594 16.898438zm0 0"/></svg>