<?xml version="1.0" encoding="utf-8"?>
<!-- Generator: Adobe Illustrator 20.0.0, SVG Export Plug-In . SVG Version: 6.00 Build 0)  -->
<svg version="1.1" id="Ebene_1" xmlns="http://www.w3.org/2000/svg" xmlns:xlink="http://www.w3.org/1999/xlink" x="0px" y="0px"
	 viewBox="0 0 24 24" style="enable-background:new 0 0 24 24;" xml:space="preserve">
<title>calendar</title>
<g>
	<path d="M21,3H2.9C2.1,3,1.5,3.9,1.5,4.7v14.8c0,0.7,0.6,1.5,1.4,1.5h17.9c0.8,0,1.7-0.6,1.7-1.4V4.7C22.5,3.9,21.8,3,21,3z M2.9,4
		H21c0.2,0,0.5,0.4,0.5,0.7v2.8h-19V4.7C2.5,4.4,2.8,4,2.9,4z M20.8,20H2.9c-0.2,0-0.4-0.3-0.4-0.5v-11h19v11.1
		C21.5,19.7,21.1,20,20.8,20z"/>
	<circle cx="6" cy="5.7" r="1"/>
	<circle cx="18" cy="5.7" r="1"/>
	<path d="M10.8,13.8L10.8,13.8c0.7-0.3,1.1-0.7,1.1-1.4c0-0.8-0.7-1.4-1.9-1.4c-0.6,0-1.2,0.1-1.8,0.4l0.3,1
		c0.4-0.2,0.8-0.3,1.2-0.3c0.6,0,0.9,0.3,0.9,0.6c0,0.5-0.6,0.7-1,0.7H8.9v1h0.6c0.6,0,1.2,0.3,1.2,0.8c0,0.4-0.4,0.8-1.1,0.8
		c-0.5,0-0.9-0.1-1.3-0.4l-0.3,1C8.5,16.9,9.1,17,9.7,17c1.5,0,2.4-0.8,2.4-1.8C12.1,14.5,11.5,13.9,10.8,13.8z"/>
	<polygon points="13.4,11.8 13.6,12.8 14.7,12.3 14.7,17 16,17 16,11 14.9,11 	"/>
</g>
</svg>
