<?xml version="1.0" encoding="utf-8"?>
<!-- Generator: Adobe Illustrator 20.0.0, SVG Export Plug-In . SVG Version: 6.00 Build 0)  -->
<svg version="1.1" id="Ebene_1" xmlns="http://www.w3.org/2000/svg" xmlns:xlink="http://www.w3.org/1999/xlink" x="0px" y="0px"
	 viewBox="0 0 24 24" style="enable-background:new 0 0 24 24;" xml:space="preserve">
<title>contact</title>
<g>
	<path d="M18,22.5c-2.5,0-5.9-2.1-10.1-6.3C1.7,10.1,0,5.8,2.8,3l0.9-0.9c0.4-0.4,1-0.6,1.5-0.6s1.1,0.2,1.4,0.6l3.1,3.1
		c0.8,0.8,0.8,2.1,0,2.9L8.8,8.9C8.6,9.1,8.5,9.2,8.4,9.2c0.8,1.3,1.7,2.5,2.7,3.6c1.1,1.1,2.3,2,3.6,2.7c0.1-0.1,0.1-0.2,0.2-0.3
		l1.1-1.1c0.8-0.8,2-0.7,2.7,0c0,0,3.2,3.3,3.3,3.4c0.6,0.8,0.6,1.8,0,2.6l-1.2,1.2C20,22.1,19.1,22.5,18,22.5z M5.1,2.5
		c-0.3,0-0.5,0.1-0.7,0.3L3.5,3.7C1.2,6,2.9,9.8,8.5,15.5c7.4,7.4,10.2,6.5,11.6,5.2l1.1-1.1c0.3-0.3,0.3-0.9,0-1.3L18,15
		c-0.3-0.4-0.9-0.4-1.3,0l-1.1,1c-0.1,0.1-0.2,0.2-0.2,0.3c0,0.2-0.1,0.2-0.3,0.4c-0.1,0.1-0.3,0.1-0.5,0c-1.6-0.9-3-1.9-4.3-3.2
		S8,10.7,7.1,9.1c0-0.1,0-0.3,0.1-0.4c0.1-0.1,0.2-0.2,0.4-0.3c0.2,0,0.3-0.1,0.4-0.2l0.9-0.9c0.4-0.4,0.4-1.1,0-1.5l-3-3
		C5.7,2.6,5.4,2.5,5.1,2.5L5.1,2.5z"/>
</g>
</svg>
