<?xml version="1.0" encoding="utf-8"?>
<!-- Generator: Adobe Illustrator 19.2.0, SVG Export Plug-In . SVG Version: 6.00 Build 0)  -->
<svg version="1.1" id="Ebene_1" xmlns="http://www.w3.org/2000/svg" xmlns:xlink="http://www.w3.org/1999/xlink" x="0px" y="0px"
	 viewBox="0 0 25 25" style="enable-background:new 0 0 25 25;" xml:space="preserve">
<style type="text/css">
	.st0{fill:#010202;}
</style>
<g id="contact">
	<path class="st0" d="M17.8,22c-2.3,0-5.3-1.9-9.1-5.7C4.9,12.4,3,9.4,3,7.1c0-1.1,0.4-2,1.2-2.8L5,3.5c0.7-0.7,1.9-0.7,2.6,0
		l2.8,2.8c0.7,0.7,0.7,1.9,0,2.6L9.6,9.7C9.5,9.8,9.4,9.9,9.2,10c0.8,1.3,1.6,2.3,2.5,3.2c0.9,0.9,2,1.7,3.2,2.5
		c0.1-0.1,0.1-0.2,0.2-0.2l1-1c0.3-0.3,0.8-0.5,1.2-0.5s0.9,0.2,1.2,0.5l3,3c0.7,0.7,0.7,1.8,0,2.4l-1,1c0,0,0,0-0.1,0.1
		C19.7,21.6,18.8,22,17.8,22 M6.3,3.9C6,3.9,5.8,4,5.6,4.2L4.8,5C4.2,5.6,3.9,6.3,3.9,7.1c0,2,1.8,4.9,5.4,8.5c5,5,8.4,6.5,10.5,4.7
		c0,0,0,0,0,0l1-1c0.3-0.3,0.3-0.8,0-1.1l-3-3c-0.3-0.3-0.8-0.3-1.1,0l-1,1c-0.1,0.1-0.1,0.2-0.1,0.3c0,0.2-0.1,0.3-0.3,0.4
		c-0.1,0.1-0.3,0.1-0.4,0c-1.5-0.9-2.8-1.8-3.9-2.9C10,12.8,9,11.5,8.2,10c-0.1-0.1-0.1-0.3,0-0.5c0.1-0.1,0.2-0.2,0.4-0.2
		c0.1,0,0.3-0.1,0.4-0.2l0.8-0.8C9.9,8.1,10,7.9,10,7.6S9.9,7.1,9.7,7L6.9,4.2C6.8,4,6.5,3.9,6.3,3.9"/>
</g>
</svg>
