<?xml version="1.0" encoding="UTF-8" standalone="no"?>
<svg width="32px" height="32px" viewBox="0 0 32 32" version="1.1" xmlns="http://www.w3.org/2000/svg" xmlns:xlink="http://www.w3.org/1999/xlink">
    <!-- Generator: Sketch 41.2 (35397) - http://www.bohemiancoding.com/sketch -->
    <title>text25-media75</title>
    <desc>Created with Sketch.</desc>
    <defs>
        <rect id="path-1" x="12" y="7" width="20" height="18"></rect>
        <mask id="mask-2" maskContentUnits="userSpaceOnUse" maskUnits="objectBoundingBox" x="0" y="0" width="20" height="18" fill="white">
            <use xlink:href="#path-1"></use>
        </mask>
    </defs>
    <g id="Page-1" stroke="none" stroke-width="1" fill="none" fill-rule="evenodd">
        <g id="Desktop-HD" transform="translate(-51.000000, -441.000000)">
            <g id="Text-Media-Element" transform="translate(51.000000, 136.000000)">
                <g id="text25-media75" transform="translate(0.000000, 305.000000)">
                    <rect id="Rectangle-54" fill-opacity="0" fill="#FAFAFA" x="0" y="0" width="32" height="32"></rect>
                    <use id="Rectangle" stroke="#B70032" mask="url(#mask-2)" stroke-width="2" fill="#B70032" xlink:href="#path-1"></use>
                    <path d="M23.2727273,15 L20.8545455,17.9166667 L22.7,20.1333333 L21.6818182,20.8333333 C20.6,19.55 18.8181818,17.3333333 18.8181818,17.3333333 L15,22 L29,22 L23.2727273,15 L23.2727273,15 Z" id="Shape" fill="#FFFFFF"></path>
                    <rect id="Rectangle-86" fill="#B70032" x="0" y="7" width="10" height="2"></rect>
                    <rect id="Rectangle-86" fill="#B70032" x="0" y="11" width="10" height="2"></rect>
                    <rect id="Rectangle-86" fill="#B70032" x="0" y="15" width="10" height="2"></rect>
                    <rect id="Rectangle-86" fill="#B70032" x="0" y="19" width="10" height="2"></rect>
                    <rect id="Rectangle-86" fill="#B70032" x="0" y="23" width="5" height="2"></rect>
                </g>
            </g>
        </g>
    </g>
</svg>