<?xml version="1.0" encoding="utf-8"?>
<!-- Generator: Adobe Illustrator 20.0.0, SVG Export Plug-In . SVG Version: 6.00 Build 0)  -->
<svg version="1.1" id="Ebene_1" xmlns="http://www.w3.org/2000/svg" xmlns:xlink="http://www.w3.org/1999/xlink" x="0px" y="0px"
	 viewBox="0 0 25 25" style="enable-background:new 0 0 25 25;" xml:space="preserve">
<g>
	<path d="M21.5,5.3C20.7,5.7,19.9,6,19,6.2C18.3,5.5,17.3,5,16.2,5c-2.2,0-3.9,1.7-3.9,3.8c0,0.3,0,0.6,0.1,0.9
		c-3.2-0.2-6.1-1.7-8-4C4,6.3,3.8,6.9,3.8,7.6c0,1.3,0.7,2.5,1.7,3.2c-0.6,0-1.2-0.2-1.8-0.5l0,0c0,1.8,1.3,3.4,3.1,3.7
		c-0.3,0.1-0.7,0.1-1,0.1s-0.5,0-0.7-0.1c0.5,1.5,1.9,2.6,3.6,2.6c-1.3,1-3,1.6-4.8,1.6c-0.3,0-0.6,0-0.9-0.1C4.7,19.4,6.8,20,9,20
		c7.2,0,11.1-5.8,11.1-10.8c0-0.2,0-0.3,0-0.5c0.8-0.5,1.4-1.2,1.9-2c-0.7,0.3-1.4,0.5-2.2,0.6C20.6,6.9,21.2,6.2,21.5,5.3z"/>
</g>
</svg>
