<?xml version="1.0" encoding="UTF-8" standalone="no"?>
<svg width="32px" height="32px" viewBox="0 0 32 32" version="1.1" xmlns="http://www.w3.org/2000/svg" xmlns:xlink="http://www.w3.org/1999/xlink">
    <!-- Generator: Sketch 41.2 (35397) - http://www.bohemiancoding.com/sketch -->
    <title>media75-text25</title>
    <desc>Created with Sketch.</desc>
    <defs>
        <rect id="path-1" x="0" y="7" width="20" height="18"></rect>
        <mask id="mask-2" maskContentUnits="userSpaceOnUse" maskUnits="objectBoundingBox" x="0" y="0" width="20" height="18" fill="white">
            <use xlink:href="#path-1"></use>
        </mask>
    </defs>
    <g id="Page-1" stroke="none" stroke-width="1" fill="none" fill-rule="evenodd">
        <g id="Desktop-HD" transform="translate(-51.000000, -403.000000)">
            <g id="Text-Media-Element" transform="translate(51.000000, 136.000000)">
                <g id="media75-text25" transform="translate(0.000000, 267.000000)">
                    <rect id="Rectangle-53" fill-opacity="0" fill="#FAFAFA" x="0" y="0" width="32" height="32"></rect>
                    <use id="Rectangle" stroke="#B70032" mask="url(#mask-2)" stroke-width="2" fill="#B70032" xlink:href="#path-1"></use>
                    <path d="M11.2727273,15 L8.85454545,17.9166667 L10.7,20.1333333 L9.68181818,20.8333333 C8.6,19.55 6.81818182,17.3333333 6.81818182,17.3333333 L3,22 L17,22 L11.2727273,15 L11.2727273,15 Z" id="Shape" fill="#FFFFFF"></path>
                    <path d="M23,24 L27,24" id="Line" stroke="#B70032" stroke-width="2" stroke-linecap="square"></path>
                    <path d="M23,20 L31,20" id="Line" stroke="#B70032" stroke-width="2" stroke-linecap="square"></path>
                    <path d="M23,16 L31,16" id="Line" stroke="#B70032" stroke-width="2" stroke-linecap="square"></path>
                    <path d="M23,12 L31,12" id="Line" stroke="#B70032" stroke-width="2" stroke-linecap="square"></path>
                    <path d="M23,8 L31,8" id="Line" stroke="#B70032" stroke-width="2" stroke-linecap="square"></path>
                </g>
            </g>
        </g>
    </g>
</svg>