<?xml version="1.0" encoding="UTF-8" standalone="no"?>
<svg width="32px" height="32px" viewBox="0 0 32 32" version="1.1" xmlns="http://www.w3.org/2000/svg" xmlns:xlink="http://www.w3.org/1999/xlink">
    <!-- Generator: Sketch 41.2 (35397) - http://www.bohemiancoding.com/sketch -->
    <title>gallery-grid</title>
    <desc>Created with Sketch.</desc>
    <defs>
        <rect id="path-1" x="0" y="0" width="8" height="10"></rect>
        <mask id="mask-2" maskContentUnits="userSpaceOnUse" maskUnits="objectBoundingBox" x="0" y="0" width="8" height="10" fill="white">
            <use xlink:href="#path-1"></use>
        </mask>
        <rect id="path-3" x="0" y="0" width="8" height="10"></rect>
        <mask id="mask-4" maskContentUnits="userSpaceOnUse" maskUnits="objectBoundingBox" x="0" y="0" width="8" height="10" fill="white">
            <use xlink:href="#path-3"></use>
        </mask>
        <rect id="path-5" x="0" y="0" width="8" height="10"></rect>
        <mask id="mask-6" maskContentUnits="userSpaceOnUse" maskUnits="objectBoundingBox" x="0" y="0" width="8" height="10" fill="white">
            <use xlink:href="#path-5"></use>
        </mask>
        <rect id="path-7" x="0" y="0" width="8" height="10"></rect>
        <mask id="mask-8" maskContentUnits="userSpaceOnUse" maskUnits="objectBoundingBox" x="0" y="0" width="8" height="10" fill="white">
            <use xlink:href="#path-7"></use>
        </mask>
        <rect id="path-9" x="7" y="5" width="18" height="19"></rect>
        <mask id="mask-10" maskContentUnits="userSpaceOnUse" maskUnits="objectBoundingBox" x="0" y="0" width="18" height="19" fill="white">
            <use xlink:href="#path-9"></use>
        </mask>
    </defs>
    <g id="Page-1" stroke="none" stroke-width="1" fill="none" fill-rule="evenodd">
        <g id="Desktop-HD" transform="translate(-50.000000, -605.000000)">
            <g id="Galerie" transform="translate(50.000000, 593.000000)">
                <g id="gallery-grid" transform="translate(0.000000, 12.000000)">
                    <rect id="Rectangle-59" fill-opacity="0" fill="#FAFAFA" x="0" y="0" width="32" height="32"></rect>
                    <g id="Group-3" transform="translate(0.000000, 5.000000)">
                        <use id="Rectangle" stroke="#565C5E" mask="url(#mask-2)" stroke-width="2" fill="#FFFFFF" xlink:href="#path-1"></use>
                        <polygon id="Shape" fill="#565C5E" points="2 8 8 8 5.05454545 4"></polygon>
                    </g>
                    <g id="Group-3" transform="translate(0.000000, 14.000000)">
                        <use id="Rectangle" stroke="#565C5E" mask="url(#mask-4)" stroke-width="2" fill="#FFFFFF" xlink:href="#path-3"></use>
                        <polygon id="Shape" fill="#565C5E" points="2 8 8 8 5.05454545 4"></polygon>
                    </g>
                    <g id="Group-3" transform="translate(24.000000, 5.000000)">
                        <use id="Rectangle" stroke="#565C5E" mask="url(#mask-6)" stroke-width="2" fill="#FFFFFF" xlink:href="#path-5"></use>
                        <polygon id="Shape" fill="#565C5E" points="0 8 6 8 3.05454545 4"></polygon>
                    </g>
                    <g id="Group-3" transform="translate(24.000000, 14.000000)">
                        <use id="Rectangle" stroke="#565C5E" mask="url(#mask-8)" stroke-width="2" fill="#FFFFFF" xlink:href="#path-7"></use>
                        <polygon id="Shape" fill="#565C5E" points="0 8 6 8 3.05454545 4"></polygon>
                    </g>
                    <use id="Rectangle" stroke="#B70032" mask="url(#mask-10)" stroke-width="2" fill="#FFFFFF" xlink:href="#path-9"></use>
                    <path d="M17.0909091,15 L15.0181818,17.5 L16.6,19.4 L15.7272727,20 C14.8,18.9 13.2727273,17 13.2727273,17 L10,21 L22,21 L17.0909091,15 L17.0909091,15 Z" id="Shape" fill="#B70032"></path>
                    <rect id="Rectangle-3" fill="#565C5E" x="19" y="26" width="2" height="2.00195308"></rect>
                    <rect id="Rectangle-3" fill="#565C5E" x="15" y="26" width="2" height="2.00195308"></rect>
                    <rect id="Rectangle-3" fill="#565C5E" x="11" y="26" width="2" height="2.00195308"></rect>
                </g>
            </g>
        </g>
    </g>
</svg>