<?xml version="1.0" encoding="UTF-8" standalone="no"?>
<svg width="32px" height="32px" viewBox="0 0 32 32" version="1.1" xmlns="http://www.w3.org/2000/svg" xmlns:xlink="http://www.w3.org/1999/xlink">
    <!-- Generator: Sketch 41.2 (35397) - http://www.bohemiancoding.com/sketch -->
    <title>stageslider</title>
    <desc>Created with Sketch.</desc>
    <defs>
        <rect id="path-1" x="0" y="5" width="32" height="20"></rect>
        <mask id="mask-2" maskContentUnits="userSpaceOnUse" maskUnits="objectBoundingBox" x="0" y="0" width="32" height="20" fill="white">
            <use xlink:href="#path-1"></use>
        </mask>
    </defs>
    <g id="Page-1" stroke="none" stroke-width="1" fill="none" fill-rule="evenodd">
        <g id="Desktop-HD" transform="translate(-50.000000, -1270.000000)">
            <g id="Stageslider" transform="translate(50.000000, 1264.000000)">
                <g id="stageslider" transform="translate(0.000000, 6.000000)">
                    <rect id="Rectangle-66" fill-opacity="0" fill="#FAFAFA" x="0" y="0" width="32" height="32"></rect>
                    <use id="Rectangle" stroke="#565C5E" mask="url(#mask-2)" stroke-width="2" fill="#FFFFFF" xlink:href="#path-1"></use>
                    <rect id="Rectangle-3" fill="#B70032" x="19" y="27" width="2" height="2.00195308"></rect>
                    <rect id="Rectangle-3" fill="#B70032" x="15" y="27" width="2" height="2.00195308"></rect>
                    <rect id="Rectangle-3" fill="#B70032" x="11" y="27" width="2" height="2.00195308"></rect>
                    <path d="M17.4545455,13 L14.6909091,16.75 L16.8,19.6 L15.6363636,20.5 C14.4,18.85 12.3636364,16 12.3636364,16 L8,22 L24,22 L17.4545455,13 L17.4545455,13 Z" id="Shape" fill="#565C5E"></path>
                    <polygon id="Triangle" fill="#B70032" transform="translate(4.500000, 15.000000) rotate(-180.000000) translate(-4.500000, -15.000000) " points="6 15 3 17 3 13"></polygon>
                    <polygon id="Triangle" fill="#B70032" transform="translate(27.500000, 15.000000) rotate(-360.000000) translate(-27.500000, -15.000000) " points="29 15 26 17 26 13"></polygon>
                </g>
            </g>
        </g>
    </g>
</svg>