<?xml version="1.0" encoding="utf-8"?>
<!-- Generator: Adobe Illustrator 19.0.1, SVG Export Plug-In . SVG Version: 6.00 Build 0)  -->
<svg version="1.1" id="Ebene_1" xmlns="http://www.w3.org/2000/svg" xmlns:xlink="http://www.w3.org/1999/xlink" x="0px" y="0px"
	 viewBox="-587 412.9 16 16" style="enable-background:new -587 412.9 16 16;" xml:space="preserve">
<style type="text/css">
	.st0{fill:#999999;}
	.st1{fill:#222221;}
	.st2{fill:#C3007A;}
</style>
<path class="st0" d="M-573,414.9v12h-12v-12H-573 M-572,413.9h-14v14h14V413.9z"/>
<path class="st1" d="M-577.1,421.9v1.1h-0.1c-0.1-0.2-0.1-0.4-0.2-0.5c-0.1-0.1-0.2-0.2-0.3-0.3c-0.1,0-0.2-0.1-0.4-0.1h-0.3v3.1
	c0,0.2,0,0.3,0,0.4s0.1,0.1,0.1,0.1c0.1,0,0.2,0.1,0.3,0.1h0.1v0.1h-2.1v-0.1h0.1c0.1,0,0.2,0,0.3-0.1c0.1,0,0.1-0.1,0.1-0.1
	s0-0.2,0-0.4v-3.1h-0.3c-0.3,0-0.5,0.1-0.6,0.2c-0.2,0.2-0.3,0.4-0.3,0.7h-0.1v-1.1L-577.1,421.9L-577.1,421.9z"/>
<rect x="-583.9" y="415.4" class="st2" width="9.9" height="5.7"/>
</svg>
