<?xml version="1.0" encoding="UTF-8" standalone="no"?>
<svg width="32px" height="32px" viewBox="0 0 32 32" version="1.1" xmlns="http://www.w3.org/2000/svg" xmlns:xlink="http://www.w3.org/1999/xlink">
    <!-- Generator: Sketch 41.2 (35397) - http://www.bohemiancoding.com/sketch -->
    <title>Headerelement-32x32</title>
    <desc>Created with Sketch.</desc>
    <defs></defs>
    <g id="Page-1" stroke="none" stroke-width="1" fill="none" fill-rule="evenodd">
        <g id="Desktop-HD" transform="translate(-50.000000, -61.000000)">
            <g id="Headerelement" transform="translate(50.000000, 51.000000)">
                <g id="Headerelement-32x32" transform="translate(0.000000, 10.000000)">
                    <rect id="Rectangle-48" fill-opacity="0" fill="#FAFAFA" x="0" y="-1.77635684e-15" width="32" height="32"></rect>
                    <polyline id="Rectangle-3" fill="#B70032" points="31 14 31 5 1 5 1 23 32 23 32 24 0 24 1.2246468e-15 4 32 4 32 14"></polyline>
                    <g id="Group" transform="translate(11.000000, 26.000000)" fill="#565C5E">
                        <rect id="Rectangle-3" x="4" y="0" width="2" height="2.00195308"></rect>
                        <rect id="Rectangle-3" x="8" y="0" width="2" height="2.00195308"></rect>
                        <rect id="Rectangle-3" x="0" y="0" width="2" height="2.00195308"></rect>
                    </g>
                    <path d="M10.9482517,15.75 L13.1384615,18.6 L11.9300699,19.5 C10.6461538,17.85 8.53146853,15 8.53146853,15 L4,21 L16,21 L16,15.7480512 L16,14.9330198 L13.8181818,12 L10.9482517,15.75 Z" id="Shape" fill="#B70032"></path>
                    <rect id="Rectangle-5" fill="#565C5E" x="18" y="16" width="14" height="5"></rect>
                </g>
            </g>
        </g>
    </g>
</svg>