<?xml version="1.0" encoding="utf-8"?>
<!-- Generator: Adobe Illustrator 20.0.0, SVG Export Plug-In . SVG Version: 6.00 Build 0)  -->
<svg version="1.1" id="Ebene_1" xmlns="http://www.w3.org/2000/svg" xmlns:xlink="http://www.w3.org/1999/xlink" x="0px" y="0px"
	 viewBox="0 0 24 24" style="enable-background:new 0 0 24 24;" xml:space="preserve">
<title>delete</title>
<g>
	<path d="M22,4.8h-6.7V3.9c0-1-0.8-1.9-1.9-1.9h-2.8c-0.5,0-1,0.2-1.3,0.5C8.9,2.9,8.7,3.4,8.7,3.9v0.9H2c-0.4,0-0.5,0.3-0.5,0.5
		s0,0.5,0.5,0.5h1.7l1.4,15.8c0,0.3,0.2,0.5,0.5,0.5h12.8c0.3,0,0.5-0.2,0.5-0.5l1.4-15.8H22c0.3,0,0.5-0.2,0.5-0.5S22.3,4.8,22,4.8
		z M9.7,3.9c0-0.3,0.1-0.5,0.3-0.6C10.1,3.1,10.4,3,10.6,3h2.8c0.5,0,0.9,0.4,0.9,0.9v0.9H9.7V3.9z M17.9,21H6L4.7,5.8h14.5L17.9,21
		z"/>
	<path d="M12,7.5c-0.3,0-0.5,0.2-0.5,0.5v10.7c0,0.3,0.2,0.5,0.5,0.5s0.5-0.2,0.5-0.5V8C12.5,7.8,12.3,7.5,12,7.5z"/>
	<path d="M15.9,19.2c0.3,0,0.5-0.2,0.5-0.5V8c0-0.3-0.2-0.5-0.5-0.5S15.4,7.8,15.4,8v10.7C15.4,19,15.6,19.2,15.9,19.2z"/>
	<path d="M8.1,7.5C7.8,7.5,7.6,7.8,7.6,8v10.7c0,0.3,0.2,0.5,0.5,0.5c0.3,0,0.5-0.2,0.5-0.5V8C8.6,7.8,8.4,7.5,8.1,7.5z"/>
</g>
</svg>
