<?xml version="1.0" encoding="utf-8"?>
<!-- Generator: Adobe Illustrator 20.0.0, SVG Export Plug-In . SVG Version: 6.00 Build 0)  -->
<svg version="1.1" id="Ebene_1" xmlns="http://www.w3.org/2000/svg" xmlns:xlink="http://www.w3.org/1999/xlink" x="0px" y="0px"
	 viewBox="0 0 24 24" style="enable-background:new 0 0 24 24;" xml:space="preserve">
<title>direct-order</title>
<g id="direct-order">
	<ellipse cx="3.4" cy="15.4" rx="1.5" ry="1.6"/>
	<ellipse cx="20.4" cy="15.4" rx="1.5" ry="1.6"/>
	<g>
		<path d="M11.8,17.4c-1.1,0-2-0.9-2-2s0.9-2,2-2s2,0.9,2,2S12.9,17.4,11.8,17.4z M11.8,14.4c-0.6,0-1,0.4-1,1s0.4,1,1,1s1-0.4,1-1
			S12.4,14.4,11.8,14.4z"/>
	</g>
</g>
<path d="M21.3,6.1c0-0.3-0.2-0.5-0.5-0.5c-0.3,0-0.5,0.3-0.5,0.6l0.1,2.6C19.1,7.4,16.2,5,12,5C7.3,5,2.8,9.5,2.7,9.7
	c-0.2,0.2-0.2,0.6,0,0.8c0.2,0.2,0.5,0.1,0.7,0c0,0,4.3-4.5,8.7-4.5c4,0,6.7,2.5,7.9,3.8l-2.4,0.2c-0.3,0-0.5,0.3-0.5,0.6
	c0,0.3,0.2,0.5,0.5,0.5c0,0,0,0,0,0l3.4-0.2c0.3,0,0.5-0.3,0.5-0.6L21.3,6.1z"/>
</svg>
