<svg id="Ebene_1" data-name="Ebene 1" xmlns="http://www.w3.org/2000/svg" viewBox="0 0 24 24"><title>document-doc</title><path d="M17,16H14.5a.47.47,0,0,1-.5-.5v-3a.47.47,0,0,1,.5-.5H17v1H15v2h2Z"/><path d="M12.8,16H10.6a.47.47,0,0,1-.5-.5v-3a.47.47,0,0,1,.5-.5h2.2a.47.47,0,0,1,.5.5v3A.47.47,0,0,1,12.8,16Zm-1.7-1h1.2V13H11.1Z"/><path d="M7.5,16H7a.47.47,0,0,1-.5-.5v-3A.47.47,0,0,1,7,12h.5a2.05,2.05,0,0,1,2.2,2A2.11,2.11,0,0,1,7.5,16Zm0-3v2a1.19,1.19,0,0,0,1.2-1,1.19,1.19,0,0,0-1.2-1Z"/><path d="M20.5,6.9h0c0-.1-5.1-5.3-5.1-5.3s-.1-.1-.2-.1H4a.47.47,0,0,0-.5.5V22a.47.47,0,0,0,.5.5H20a.47.47,0,0,0,.5-.5V6.9Zm-1.7-.4H15.5V3.2ZM4.5,21.5V2.5h10V7a.47.47,0,0,0,.5.5h4.5v14Z"/></svg>