<svg id="Ebene_1" data-name="Ebene 1" xmlns="http://www.w3.org/2000/svg" viewBox="0 0 24 24"><title>document-zip</title><path d="M15.4,1.7a.52.52,0,0,0-.4-.2H4a.47.47,0,0,0-.5.5V20.5A.54.54,0,0,0,4,21h6l1.7,1.4a.5.5,0,0,0,.6,0L14,21h6a.47.47,0,0,0,.5-.5V7.1C20.5,7,15.4,1.7,15.4,1.7Zm.1,1.5,3.3,3.4H15.5ZM12,21.4,9.4,19.3h1a.47.47,0,0,0,.5-.5V16.4h2.2v2.4a.47.47,0,0,0,.44.5H14.6ZM15.3,20l1.1-.9c.2-.1.2-.4.2-.6s-.3-.3-.5-.3H14.2V15.8a.47.47,0,0,0-.44-.5H10.5a.47.47,0,0,0-.5.5v2.4H8a.55.55,0,0,0-.5.3c-.1.2,0,.4.2.6l1,.9H4.5V2.5h10V7.1a.47.47,0,0,0,.44.5H19.5V20Z"/><path d="M10.6,10.4a.45.45,0,0,0,0-.5.54.54,0,0,0-.4-.3H7.5v1H9.2L7.6,13a.45.45,0,0,0,0,.5.54.54,0,0,0,.4.3h2.6v-1H9Z"/><rect x="11.8" y="9.7" width="1" height="4.1"/><path d="M16.5,9.6H14.4a.47.47,0,0,0-.5.5v3.6h1V12.1h1.6a.47.47,0,0,0,.5-.5V10A.55.55,0,0,0,16.5,9.6ZM16,11.2H14.9v-.6H16Z"/></svg>