<svg id="Ebene_1" data-name="Ebene 1" xmlns="http://www.w3.org/2000/svg" viewBox="0 0 24 24"><title>documents</title><path d="M17.5,9.87h0c0-.08-4.2-4.29-4.2-4.29s-.08-.08-.16-.08H3.91a.39.39,0,0,0-.41.4V22.1a.39.39,0,0,0,.41.4H17.09a.39.39,0,0,0,.41-.4V9.87Zm-1.4-.32H13.38V6.88ZM4.32,21.69V6.31h8.24V10a.39.39,0,0,0,.41.4h3.71V21.69Z"/><path d="M16.3,1.58c-.08-.08-.08-.08-.16-.08H6.91a.39.39,0,0,0-.41.4V6h.82V2.31h8.24V6a.39.39,0,0,0,.41.4h3.71V17.69H17.14v.81h2.94a.39.39,0,0,0,.41-.4V5.87C20.5,5.79,16.3,1.58,16.3,1.58Zm.08,4V2.88L19.1,5.55Z"/></svg>