<svg id="Ebene_1" data-name="Ebene 1" xmlns="http://www.w3.org/2000/svg" viewBox="0 0 24 24"><title>document-pdf</title><path d="M16.2,15a13.4,13.4,0,0,0-2,.1c-.3-.2-.5-.3-.8-.5A5.94,5.94,0,0,1,12,12.3c0-.1-.1-.3-.1-.4L12,9.7,11.8,11c0,.1-.1.2-.1.4a15.52,15.52,0,0,1-.4-2.1V8.6c0-.1.1-.2.2-.3.6.2.5,1.2.5,1.4a2.2,2.2,0,0,0,.1-.8.87.87,0,0,0-.6-.8c-.3-.1-.5,0-.8.4s0,2.1.5,3.7v.4A16.39,16.39,0,0,1,10,14.8c-1.5,2.9-2.6,4.5-3.4,4.6a4.26,4.26,0,0,1,1.5-2,5.92,5.92,0,0,0,.6-.4l-.7.3a4.51,4.51,0,0,0-2,2.1c0,.1,0,.4.1.5s.1.1.2.1h.2c.9,0,2.2-1.3,3.3-3.3a20.88,20.88,0,0,1,4.3-1.1,8.36,8.36,0,0,0,3.1,1.2h.3c.1,0,.2-.1.3-.2a1.27,1.27,0,0,0,.1-.6c-.1.1-.2.2-.2.3s-.2.1-.3,0a7.54,7.54,0,0,1-2.4-.8c.4,0,.9-.1,1.3-.1a3.4,3.4,0,0,1,1,.1c.7.3.7.5.7.5v-.2a.76.76,0,0,0-.2-.4A2.93,2.93,0,0,0,16.2,15Zm-6,1c.2-.4,1.4-2.7,1.4-2.7a10.1,10.1,0,0,0,1.3,1.6c.1.1.3.2.4.3Z"/><path d="M20.5,6.9h0c0-.1-5.1-5.3-5.1-5.3s-.1-.1-.2-.1H4a.47.47,0,0,0-.5.5V22a.47.47,0,0,0,.5.5H20a.47.47,0,0,0,.5-.5V6.9Zm-1.7-.4H15.5V3.2ZM4.5,21.5V2.5h10V7a.47.47,0,0,0,.5.5h4.5v14Z"/></svg>