<svg id="Ebene_1" data-name="Ebene 1" xmlns="http://www.w3.org/2000/svg" viewBox="0 0 24 24"><title>document-xls</title><path d="M11.9,15.3V12h-1v3.8a.47.47,0,0,0,.5.5h2.2v-1Z"/><polygon points="9.3 11.9 8.4 13.3 7.4 11.9 6.6 12.5 7.8 14.1 6.6 15.7 7.4 16.3 8.4 15 9.3 16.3 10.2 15.7 9 14.1 10.2 12.5 9.3 11.9"/><path d="M16.2,12h-.8a1.16,1.16,0,0,0-1.2,1.2v.2h0a1.22,1.22,0,0,0,1.2,1.2h.8a.22.22,0,0,1,.2.2V15h0a.22.22,0,0,1-.2.2h-.8a.22.22,0,0,1-.2-.2h-1a1.22,1.22,0,0,0,1.2,1.2h.8A1.16,1.16,0,0,0,17.4,15v-.2h0a1.22,1.22,0,0,0-1.2-1.2h-.8a.22.22,0,0,1-.2-.2v-.2h0a.22.22,0,0,1,.2-.2h.8a.22.22,0,0,1,.2.2h1A1.1,1.1,0,0,0,16.2,12Z"/><path d="M20.5,6.9h0c0-.1-5.1-5.3-5.1-5.3s-.1-.1-.2-.1H4a.47.47,0,0,0-.5.5V22a.47.47,0,0,0,.5.5H20a.47.47,0,0,0,.5-.5V6.9Zm-1.7-.4H15.5V3.2ZM4.5,21.5V2.5h10V7a.47.47,0,0,0,.5.5h4.5v14Z"/></svg>