<svg id="Ebene_1" data-name="Ebene 1" xmlns="http://www.w3.org/2000/svg" viewBox="0 0 24 24"><title>document</title><g id="_0" data-name="0"><path d="M17,11.5H7a.5.5,0,0,1,0-1H17a.5.5,0,0,1,0,1Z"/></g><g id="_1" data-name="1"><path d="M17,14.5H7a.5.5,0,0,1,0-1H17a.5.5,0,0,1,0,1Z"/></g><g id="_2" data-name="2"><path d="M17,17.5H7a.5.5,0,0,1,0-1H17a.5.5,0,0,1,0,1Z"/></g><path d="M20,7.5H15a.5.5,0,0,1-.5-.5V2a.5.5,0,0,1,.85-.35l5,5A.5.5,0,0,1,20,7.5Zm-4.5-1h3.29L15.5,3.21Z"/><path d="M20,22.5H4a.5.5,0,0,1-.5-.5V2A.5.5,0,0,1,4,1.5H15a.5.5,0,0,1,.35.15l5,5A.5.5,0,0,1,20.5,7V22A.5.5,0,0,1,20,22.5Zm-15.5-1h15V7.21L14.79,2.5H4.5Z"/></svg>