<svg id="Ebene_1" data-name="Ebene 1" xmlns="http://www.w3.org/2000/svg" viewBox="0 0 24 24"><title>document-svg</title><g id="_0" data-name=" 0"><path d="M17,11.5H7a.5.5,0,0,1,0-1H17a.5.5,0,0,1,0,1Z"/></g><g id="_1" data-name=" 1"><path d="M17,14.5H7a.5.5,0,0,1,0-1H17a.5.5,0,0,1,0,1Z"/></g><g id="_2" data-name=" 2"><path d="M17,17.5H7a.5.5,0,0,1,0-1H17a.5.5,0,0,1,0,1Z"/></g><path d="M20.5,6.9h0c0-.1-5.1-5.3-5.1-5.3s-.1-.1-.2-.1H4a.47.47,0,0,0-.5.5V22a.47.47,0,0,0,.5.5H20a.47.47,0,0,0,.5-.5V6.9Zm-1.7-.4H15.5V3.2ZM4.5,21.5V2.5h10V7a.47.47,0,0,0,.5.5h4.5v14Z"/></svg>