<svg id="Ebene_1" data-name="Ebene 1" xmlns="http://www.w3.org/2000/svg" viewBox="0 0 24 24"><title>document-jpg</title><path d="M14.5,12a.52.52,0,0,0-.4-.2.76.76,0,0,0-.4.2l-2.2,3-1-1c-.2-.3-.3-.2-.4-.1h0C10,13.9,5.7,18,5.7,18s-.1.4-.1.5.1.3.5.3H18a.55.55,0,0,0,.5-.3.44.44,0,0,0-.1-.5ZM7.4,17.8,10.2,15,13,17.8Zm7,0-2.2-2.2,1.9-2.5,3,4.7Z"/><path d="M9,12a2,2,0,1,0-2-2A2,2,0,0,0,9,12ZM9,9a.94.94,0,0,1,1,1,.94.94,0,0,1-1,1,.94.94,0,0,1-1-1A.94.94,0,0,1,9,9Z"/><path d="M20.5,6.9h0c0-.1-5.1-5.3-5.1-5.3s-.1-.1-.2-.1H4a.47.47,0,0,0-.5.5V22a.47.47,0,0,0,.5.5H20a.47.47,0,0,0,.5-.5V6.9Zm-1.7-.4H15.5V3.2ZM4.5,21.5V2.5h10V7a.47.47,0,0,0,.5.5h4.5v14Z"/></svg>