<?xml version="1.0" encoding="UTF-8" standalone="no"?>
<svg width="32px" height="32px" viewBox="0 0 32 32" version="1.1" xmlns="http://www.w3.org/2000/svg" xmlns:xlink="http://www.w3.org/1999/xlink">
    <!-- Generator: Sketch 41.2 (35397) - http://www.bohemiancoding.com/sketch -->
    <title>news</title>
    <desc>Created with Sketch.</desc>
    <defs>
        <polygon id="path-1" points="0 0 29 0 29 10 32 10 32 28 29 32 0 32"></polygon>
        <mask id="mask-2" maskContentUnits="userSpaceOnUse" maskUnits="objectBoundingBox" x="0" y="0" width="32" height="32" fill="white">
            <use xlink:href="#path-1"></use>
        </mask>
        <rect id="path-3" x="15" y="5" width="10" height="10"></rect>
        <mask id="mask-4" maskContentUnits="userSpaceOnUse" maskUnits="objectBoundingBox" x="0" y="0" width="10" height="10" fill="white">
            <use xlink:href="#path-3"></use>
        </mask>
    </defs>
    <g id="Page-1" stroke="none" stroke-width="1" fill="none" fill-rule="evenodd">
        <g id="Desktop-HD" transform="translate(-50.000000, -1549.000000)">
            <g id="News" transform="translate(50.000000, 1538.000000)">
                <g id="news" transform="translate(0.000000, 11.000000)">
                    <use id="Rectangle-14" stroke="#B70032" mask="url(#mask-2)" stroke-width="2" xlink:href="#path-1"></use>
                    <use id="Rectangle-17" stroke="#B70032" mask="url(#mask-4)" stroke-width="2" fill="#FFFFFF" xlink:href="#path-3"></use>
                    <rect id="Rectangle-18" fill="#B70032" x="4" y="5" width="9" height="2"></rect>
                    <rect id="Rectangle-18" fill="#B70032" x="4" y="9" width="9" height="2"></rect>
                    <rect id="Rectangle-18" fill="#B70032" x="4" y="13" width="9" height="2"></rect>
                    <rect id="Rectangle-18" fill="#B70032" x="4" y="17" width="21" height="2"></rect>
                    <rect id="Rectangle-18" fill="#B70032" x="4" y="21" width="21" height="2"></rect>
                    <rect id="Rectangle-18" fill="#B70032" x="4" y="25" width="21" height="2"></rect>
                    <rect id="Rectangle-16" fill="#B70032" x="28" y="11" width="1" height="20"></rect>
                </g>
            </g>
        </g>
    </g>
</svg>