<?xml version="1.0" encoding="utf-8"?>
<!-- Generator: Adobe Illustrator 20.0.0, SVG Export Plug-In . SVG Version: 6.00 Build 0)  -->
<svg version="1.1" id="Ebene_1" xmlns="http://www.w3.org/2000/svg" xmlns:xlink="http://www.w3.org/1999/xlink" x="0px" y="0px"
	 viewBox="0 0 24 24" style="enable-background:new 0 0 24 24;" xml:space="preserve">
<title>filter</title>
<g>
	<path d="M13.2,22.5c-0.1,0-0.2,0-0.3-0.1L10.4,20c-0.1-0.1-0.2-0.2-0.2-0.4v-7.2l-8-7.5C2.1,4.8,2,4.7,2,4.6V2
		c0-0.3,0.2-0.5,0.5-0.5h19C21.8,1.5,22,1.7,22,2v2.6c0,0.1-0.1,0.3-0.2,0.4l-8.1,7.6V22c0,0.2-0.1,0.4-0.3,0.5
		C13.4,22.5,13.3,22.5,13.2,22.5z M12.7,20.8v-8.6c0-0.1,0.1-0.3,0.2-0.4L21,4.3V2.5H3v1.8l8.1,7.5c0.1,0.1,0.2,0.2,0.2,0.4v7.2
		L12.7,20.8z"/>
</g>
</svg>
