<?xml version="1.0" encoding="utf-8"?>
<!-- Generator: Adobe Illustrator 20.0.0, SVG Export Plug-In . SVG Version: 6.00 Build 0)  -->
<svg version="1.1" id="Ebene_1" xmlns="http://www.w3.org/2000/svg" xmlns:xlink="http://www.w3.org/1999/xlink" x="0px" y="0px"
	 viewBox="0 0 24 24" style="enable-background:new 0 0 24 24;" xml:space="preserve">
<title>folder</title>
<path d="M22.4,9.1C22.3,9,22.1,9,22,9h-1V7.7c0-0.3-0.2-0.5-0.5-0.5h-9.8L8.6,5.1C8.5,5,8.4,5,8.2,5H3.5C3.3,5,3,5.2,3,5.5V9H2
	C1.9,9,1.7,9,1.6,9.1C1.5,9.2,1.5,9.4,1.5,9.5l1.3,9c0,0.2,0.2,0.4,0.5,0.4h17.4c0.2,0,0.5-0.2,0.5-0.4l1.3-9
	C22.5,9.4,22.5,9.2,22.4,9.1z M4,6h4L10.1,8c0.1,0.1,0.2,0.1,0.4,0.1H20V9H4V6z M20.2,18H3.8l-1.2-8h18.8L20.2,18z"/>
</svg>
