<?xml version="1.0" encoding="utf-8"?>
<!-- Generator: Adobe Illustrator 20.0.0, SVG Export Plug-In . SVG Version: 6.00 Build 0)  -->
<svg version="1.1" id="Ebene_1" xmlns="http://www.w3.org/2000/svg" xmlns:xlink="http://www.w3.org/1999/xlink" x="0px" y="0px"
	 viewBox="0 0 24 24" style="enable-background:new 0 0 24 24;" xml:space="preserve">
<title>image_zoom</title>
<g>
	<path d="M17.1,1.5c0,0-11.3,0-15.1,0c-0.2,0-0.4,0-0.4,0.1C1.5,1.7,1.5,1.9,1.5,2c0,3.8,0,15.1,0,15.1c0,0.3,0.2,0.5,0.5,0.5h8.1
		c0.3,0,0.5-0.2,0.5-0.5s-0.2-0.5-0.5-0.5H2.5v-2.1h7.6c0.3,0,0.5-0.2,0.5-0.5s-0.2-0.5-0.5-0.5H2.5V2.4h14.1v7.8
		c0,0.3,0.2,0.5,0.5,0.5s0.5-0.2,0.5-0.5V2C17.6,1.7,17.4,1.5,17.1,1.5z"/>
	<path d="M11.2,6.4L8.3,9.3c-0.2,0.2-0.2,0.5,0,0.7c0.1,0.1,0.2,0.2,0.4,0.2c0.1,0,0.3-0.1,0.4-0.2L12,7.1c0.2-0.2,0.2-0.6,0-0.8
		C11.7,6.1,11.4,6.2,11.2,6.4z"/>
	<path d="M10.3,6.5c0.2-0.2,0.2-0.5,0-0.7s-0.5-0.2-0.7,0L7.9,7.5C7.7,7.7,7.7,8,7.9,8.2C8,8.3,8.1,8.4,8.2,8.4
		c0.1,0,0.3-0.1,0.4-0.2L10.3,6.5z"/>
	<path d="M22,12.3h-1.8l0,0c-0.3,0-0.5,0.2-0.5,0.5s0.2,0.5,0.5,0.5h0.7L19,15.2c-0.2,0.2-0.2,0.5,0,0.7c0.1,0.1,0.2,0.2,0.4,0.2
		c0.1,0,0.3-0.1,0.4-0.2l1.8-1.8v0.5c0,0.3,0.2,0.5,0.5,0.5s0.5-0.2,0.5-0.5c0,0,0.1-1.4,0-1.8C22.5,12.5,22.3,12.3,22,12.3z"/>
	<path d="M14.1,13.3h0.5c0.3,0,0.5-0.2,0.5-0.5s-0.2-0.5-0.5-0.5h-1.8c-0.2,0-0.3,0-0.4,0.1c-0.1,0.1-0.1,0.2-0.1,0.4v1.8
		c0,0.3,0.2,0.5,0.5,0.5s0.5-0.2,0.5-0.5v-0.7l1.9,1.9c0.1,0.1,0.2,0.2,0.4,0.2c0.1,0,0.3-0.1,0.4-0.2c0.2-0.2,0.2-0.5,0-0.7
		L14.1,13.3z"/>
	<path d="M15.1,18.9l-1.8,1.8v-0.5c0-0.3-0.2-0.5-0.5-0.5s-0.5,0.2-0.5,0.5V22c0,0.3,0.2,0.5,0.5,0.5h1.8c0.3,0,0.5-0.2,0.5-0.5
		s-0.2-0.5-0.5-0.5H14l1.9-1.9c0.2-0.2,0.2-0.5,0-0.7C15.6,18.7,15.3,18.7,15.1,18.9z"/>
	<path d="M22,19.7c-0.3,0-0.5,0.2-0.5,0.5v0.7L19.6,19c-0.2-0.2-0.5-0.2-0.7,0s-0.2,0.5,0,0.7l1.8,1.9h-0.5c-0.3,0-0.5,0.2-0.5,0.5
		s0.2,0.5,0.5,0.5H22c0.3,0,0.5-0.2,0.5-0.5v-1.8C22.5,19.9,22.3,19.7,22,19.7z"/>
</g>
</svg>
