<svg data-name="Ebene 1" xmlns="http://www.w3.org/2000/svg" viewBox="0 0 24 24"><path d="M12 4.3c2.7 0 3 0 4 .1 1 0 1.5.2 1.9.3.5.2.8.4 1.2.7.3.3.6.7.7 1.2.1.4.3.9.3 1.9 0 1.1.1 1.4.1 4s0 3-.1 4c0 1-.2 1.5-.3 1.9-.2.5-.4.8-.7 1.2-.3.3-.7.6-1.2.7-.4.1-.9.3-1.9.3-1.1 0-1.4.1-4 .1s-3 0-4-.1c-1 0-1.5-.2-1.9-.3-.5-.2-.8-.4-1.2-.7-.3-.3-.6-.7-.7-1.2-.1-.4-.3-.9-.3-1.9 0-1.1-.1-1.4-.1-4s0-3 .1-4c0-1 .2-1.5.3-1.9.2-.5.4-.8.7-1.2.3-.3.7-.6 1.2-.7.4-.1.9-.3 1.9-.3 1-.1 1.3-.1 4-.1m0-1.8c-2.7 0-3.1 0-4.1.1-1.1 0-1.8.2-2.5.4-.6.3-1.2.6-1.7 1.2S2.8 5.3 2.5 6c-.2.6-.4 1.3-.4 2.4-.1 1-.1 1.4-.1 4.1s0 3.1.1 4.1c0 1.1.2 1.8.5 2.4.3.7.6 1.2 1.2 1.8s1.1.9 1.8 1.2c.6.2 1.4.4 2.4.5 1.1 0 1.4.1 4.1.1s3.1 0 4.1-.1c1.1 0 1.8-.2 2.4-.5.7-.3 1.2-.6 1.8-1.2s.9-1.1 1.2-1.8c.2-.6.4-1.4.5-2.4 0-1.1.1-1.4.1-4.1s0-3.1-.1-4.1c0-1.1-.2-1.8-.5-2.4-.3-.7-.6-1.2-1.2-1.8s-1.2-.9-1.8-1.2c-.6-.2-1.4-.4-2.4-.5H12z"/><path d="M12 7.4c-2.8 0-5.1 2.3-5.1 5.1s2.3 5.1 5.1 5.1 5.1-2.3 5.1-5.1-2.3-5.1-5.1-5.1zm0 8.4c-1.8 0-3.3-1.5-3.3-3.3s1.5-3.3 3.3-3.3 3.3 1.5 3.3 3.3-1.5 3.3-3.3 3.3z"/><circle cx="17.3" cy="7.2" r="1.2"/></svg>
