<?xml version="1.0" encoding="utf-8"?>
<!-- Generator: Adobe Illustrator 20.0.0, SVG Export Plug-In . SVG Version: 6.00 Build 0)  -->
<svg version="1.1" id="Ebene_1" xmlns="http://www.w3.org/2000/svg" xmlns:xlink="http://www.w3.org/1999/xlink" x="0px" y="0px"
	 viewBox="0 0 24 24" style="enable-background:new 0 0 24 24;" xml:space="preserve">
<title>language</title>
<path d="M12,1.5C6.2,1.5,1.5,6.2,1.5,12S6.2,22.5,12,22.5c5.8,0,10.5-4.7,10.5-10.5S17.8,1.5,12,1.5z M20.8,8.3l-2.2,0.8
	c-0.2,0.1-0.3,0.2-0.3,0.4c0,0.2,0,0.4,0.2,0.5l0.7,0.6L17,14.1C17,14.2,17,14.3,17,14.4l0.1,0.9l-0.6,0.8l-1.9,2l-0.8-1.3l0.3-1
	c0-0.1,0-0.3-0.1-0.4l-0.8-1.2l0.1-1c0-0.1,0-0.3-0.1-0.4c-0.1-0.1-0.2-0.2-0.4-0.2l-2.1,0.1l-1-1.8L9.6,9.9l0.7-0.6l1.9-1l1.7,0.7
	l0.9,0.2c0.1,0,0.2,0,0.3,0l2-0.5c0.2,0,0.3-0.2,0.3-0.3c0.1-0.2,0-0.3,0-0.5l-0.3-0.4l0.6-0.2c0.2,0,0.3-0.2,0.4-0.4
	c0-0.2,0-0.4-0.2-0.5L17.1,6c-0.1-0.1-0.1-0.1-0.2-0.1l-1.8-0.4c-0.2,0-0.4,0-0.5,0.2l-0.6,0.7L12.7,6c-0.1,0-0.2,0-0.2,0l-1.7,0.2
	c0.1-0.2,0.1-0.5-0.1-0.6l-0.4-0.3l0.6-0.6L11.3,5c0.1,0.1,0.3,0.2,0.4,0.1l1.6-0.3c0.2,0,0.3-0.2,0.4-0.3c0.1-0.2,0-0.4-0.1-0.5
	l-0.4-0.4l1.6-0.7C17.5,3.7,19.7,5.7,20.8,8.3z M3.7,8L3,8.9C3.2,8.4,3.4,8,3.6,7.6L3.7,8z M3.9,16.3c0.1,0.1,0.2,0.2,0.4,0.2l0.8,0
	l-0.2,1.2l-0.3,0.3c-0.7-0.8-1.2-1.8-1.6-2.8l0.8,0.5l0,0.3C3.8,16,3.8,16.2,3.9,16.3z M12,21.5c-2.6,0-5-1.1-6.7-2.8l0.5-0.5
	c0.1-0.1,0.1-0.2,0.1-0.3l0.3-2c0-0.2,0-0.3-0.1-0.4c-0.1-0.1-0.2-0.2-0.4-0.2l-0.8,0c0-0.2-0.1-0.4-0.2-0.5l-1.2-0.7v-1.1
	c0-0.2-0.1-0.3-0.2-0.4l-0.7-0.4c0-0.1,0-0.2,0-0.3c0-0.3,0-0.5,0-0.8l2.1-2.8c0.1-0.1,0.1-0.3,0.1-0.4L4.3,6.5c1.7-2.4,4.5-4,7.7-4
	c0.4,0,0.8,0,1.1,0.1l-1,0.5c-0.1,0.1-0.3,0.2-0.3,0.4c0,0.2,0,0.3,0.1,0.4L12.2,4l-0.4,0.1l-0.6-0.6c-0.1-0.1-0.2-0.2-0.4-0.1
	c-0.1,0-0.3,0.1-0.4,0.2L9.3,4.9c-0.2,0.2-0.2,0.5,0,0.7L9.8,6L9.4,6.6c-0.1,0.2-0.1,0.4,0,0.5c0.1,0.2,0.3,0.2,0.5,0.2l2.6-0.4
	l1.6,0.5c0.2,0.1,0.4,0,0.6-0.2l0.6-0.8l1.1,0.2l-0.2,0.1c-0.2,0-0.3,0.2-0.3,0.3c-0.1,0.2,0,0.3,0,0.5L16.1,8l-1.2,0.3l-0.7-0.2
	l-1.8-0.8c-0.1-0.1-0.3-0.1-0.4,0L9.8,8.5l-1,0.8C8.6,9.4,8.5,9.6,8.6,9.8l0.2,1.2c0,0.1,0,0.1,0.1,0.2l1.1,2.2
	c0.1,0.2,0.3,0.3,0.5,0.3l1.9-0.1l0,0.7c0,0.1,0,0.2,0.1,0.3l0.8,1.2l-0.3,1c0,0.1,0,0.3,0,0.4l1.2,2.1c0.1,0.1,0.2,0.2,0.4,0.2
	c0,0,0,0,0.1,0c0.1,0,0.3-0.1,0.4-0.1l2.4-2.5l0.7-1c0.1-0.1,0.1-0.2,0.1-0.3L18,14.5l2.2-3.8c0.1-0.2,0.1-0.5-0.1-0.6l-0.3-0.3
	l1.4-0.5c0.3,0.9,0.4,1.8,0.4,2.7C21.5,17.2,17.2,21.5,12,21.5z"/>
</svg>
