<?xml version="1.0" encoding="utf-8"?>
<!-- Generator: Adobe Illustrator 20.0.0, SVG Export Plug-In . SVG Version: 6.00 Build 0)  -->
<svg version="1.1" id="Ebene_1" xmlns="http://www.w3.org/2000/svg" xmlns:xlink="http://www.w3.org/1999/xlink" x="0px" y="0px"
	 viewBox="0 0 24 24" style="enable-background:new 0 0 24 24;" xml:space="preserve">
<title>mail</title>
<path d="M22.5,5C22.5,5,22.5,4.9,22.5,5c0-0.1,0-0.1,0-0.2c-0.1-0.2-0.2-0.3-0.5-0.3H2c-0.2,0-0.4,0.1-0.5,0.3c0,0,0,0,0,0.1
	c0,0,0,0.1,0,0.1v14c0,0,0,0,0,0c0,0.1,0,0.3,0.1,0.4c0.1,0.1,0.2,0.1,0.4,0.1c0,0,0,0,0.1,0h19.9c0,0,0,0,0.1,0
	c0.1,0,0.3,0,0.4-0.1c0.1-0.1,0.1-0.2,0.1-0.4c0,0,0,0,0,0V5z M2.5,6.1l6.1,5.5l-6.1,6.1V6.1z M12,13.3L3.3,5.5h17.4L12,13.3z
	 M9.4,12.4C9.4,12.3,9.4,12.3,9.4,12.4l2.3,2c0.1,0.1,0.2,0.1,0.3,0.1s0.2,0,0.3-0.1l2.3-2.1c0,0,0,0,0,0l6.1,6.1H3.2L9.4,12.4z
	 M15.4,11.7l6.1-5.5v11.7L15.4,11.7z"/>
</svg>
