<?xml version="1.0" encoding="utf-8"?>
<!-- Generator: Adobe Illustrator 20.0.0, SVG Export Plug-In . SVG Version: 6.00 Build 0)  -->
<svg version="1.1" id="Ebene_1" xmlns="http://www.w3.org/2000/svg" xmlns:xlink="http://www.w3.org/1999/xlink" x="0px" y="0px"
	 viewBox="0 0 24 24" style="enable-background:new 0 0 24 24;" xml:space="preserve">
<title>overview</title>
<g>
	<path d="M21.7,10.9c-1.6-1.1-3.1-2-5.1-3.4c-2.7-1.8-6.1-2-9-0.2c0,0-5.4,3.2-5.8,3.7c-0.5,0.6-0.2,1.3,0.4,1.7l5.9,4.1l0,0
		c1.2,0.8,2.7,1.2,4.1,1.2s2.8-0.4,4.1-1.2c0,0,5.5-4,5.9-4.3C22.7,11.9,22.5,11.4,21.7,10.9z M21.3,12.1L15.9,16
		c-2.1,1.4-5.3,1.3-7.5,0l-5.9-4c-0.3-0.2-0.2-0.4-0.1-0.5C2.7,11.3,7.9,8,7.9,8c3-1.6,5.3-1.8,8.3,0.2l5.1,3.4
		C21.6,11.8,21.6,11.9,21.3,12.1z"/>
	<path d="M12,7.2c-0.9,0-1.5,0.3-1.6,0.3c-0.2,0.1-0.3,0.2-0.3,0.4s0,0.3,0.2,0.4c0.5,0.3,0.5,1.2,0.1,1.7s-1.1,0.5-1.6,0.2
		c-0.2-0.1-0.4-0.1-0.5,0C8.1,10.3,8,10.4,8,10.7c-0.2,2.3,1.1,4.2,3.4,4.7c0.6,0.2,1.9,0.2,3.2-0.6c0.9-0.6,1.5-1.5,1.6-2.7
		c0.3-2.3-0.9-4-3-4.7C12.9,7.3,12.3,7.2,12,7.2z M12.2,10.4c0.4,0,0.7,0.3,0.7,0.7s-0.3,0.7-0.7,0.7s-0.7-0.3-0.7-0.7
		S11.8,10.4,12.2,10.4z M15.3,12c-0.1,0.8-0.5,1.5-1.2,2s-1.7,0.7-2.5,0.5c-1.5-0.3-2.7-1.7-2.6-3.2c0.5,0.1,1.1,0.1,1.5-0.1
		c0.1,0.9,0.8,1.6,1.7,1.6s1.7-0.8,1.7-1.7s-0.8-1.7-1.7-1.7c-0.2,0-0.4,0-0.6,0.1c0-0.4,0-0.9-0.2-1.3c0.4-0.1,1-0.1,1.4,0
		C14.6,8.5,15.6,10.3,15.3,12z"/>
</g>
</svg>
