<?xml version="1.0" encoding="utf-8"?>
<!-- Generator: Adobe Illustrator 20.0.0, SVG Export Plug-In . SVG Version: 6.00 Build 0)  -->
<svg version="1.1" id="Ebene_1" xmlns="http://www.w3.org/2000/svg" xmlns:xlink="http://www.w3.org/1999/xlink" x="0px" y="0px"
	 viewBox="0 0 24 24" style="enable-background:new 0 0 24 24;" xml:space="preserve">
<title>search</title>
<path d="M22.4,20.1l-6.6-6.8c-0.2-0.2-0.5-0.2-0.7,0l-0.4,0.4l-1.5-1.5c0.9-1.1,1.5-2.6,1.5-4.1l0,0c0-3.6-3-6.6-6.6-6.7l0,0
	C4.5,1.4,1.5,4.3,1.5,8c0,3.6,2.9,6.6,6.6,6.7c0,0,0,0,0.1,0c1.7,0,3.2-0.6,4.4-1.7l1.4,1.4l-0.4,0.4c-0.2,0.2-0.2,0.5,0,0.7
	l6.6,6.8c0.2,0.2,0.5,0.3,0.8,0.1l1.5-1.5C22.7,20.7,22.6,20.3,22.4,20.1z M8.1,13.7L8.1,13.7c-1.5,0-2.9-0.6-4-1.7S2.5,9.5,2.5,8
	c0-3,2.5-5.5,5.6-5.5l0,0c3.1,0,5.6,2.6,5.6,5.7C13.7,11.2,11.2,13.7,8.1,13.7z M20.7,21.5l-6.1-6.3l0.9-0.9l6.1,6.3L20.7,21.5z"/>
</svg>
