<?xml version="1.0" encoding="utf-8"?>
<!-- Generator: Adobe Illustrator 20.0.0, SVG Export Plug-In . SVG Version: 6.00 Build 0)  -->
<svg version="1.1" id="Ebene_1" xmlns="http://www.w3.org/2000/svg" xmlns:xlink="http://www.w3.org/1999/xlink" x="0px" y="0px"
	 viewBox="0 0 24 24" style="enable-background:new 0 0 24 24;" xml:space="preserve">
<title>share</title>
<path d="M19.4,16.1c-1.4,0-2.6,1-3,2.4l-9.1-4.6c0.3-0.5,0.5-1.1,0.5-1.8c0-0.6-0.2-1.2-0.5-1.7l9.2-4.5c0.5,1.2,1.6,2,2.9,2
	c1.7,0,3.1-1.4,3.1-3.2s-1.4-3.2-3.1-3.2s-3.1,1.4-3.1,3.2c0,0.1,0,0.1,0,0.2L6.6,9.6C6,9.2,5.4,8.9,4.6,8.9c-1.7,0-3.1,1.4-3.1,3.2
	s1.4,3.2,3.1,3.2c0.7,0,1.4-0.2,1.9-0.7l9.8,4.9c0.1,1.6,1.5,2.9,3.1,2.9c1.7,0,3.1-1.4,3.1-3.2S21.1,16.1,19.4,16.1z M19.4,2.5
	c1.2,0,2.1,1,2.1,2.2s-1,2.2-2.1,2.2s-2.1-1-2.1-2.2S18.2,2.5,19.4,2.5z M4.6,14.3c-1.2,0-2.1-1-2.1-2.2c0-1.2,1-2.2,2.1-2.2
	s2.1,1,2.1,2.2C6.8,13.3,5.8,14.3,4.6,14.3z M19.4,21.5c-1.2,0-2.1-1-2.1-2.2s1-2.2,2.1-2.2s2.1,1,2.1,2.2S20.5,21.5,19.4,21.5z"/>
</svg>
