<?xml version="1.0" encoding="utf-8"?>
<!-- Generator: Adobe Illustrator 20.0.0, SVG Export Plug-In . SVG Version: 6.00 Build 0)  -->
<svg version="1.1" id="Ebene_1" xmlns="http://www.w3.org/2000/svg" xmlns:xlink="http://www.w3.org/1999/xlink" x="0px" y="0px"
	 viewBox="0 0 24 24" style="enable-background:new 0 0 24 24;" xml:space="preserve">
<title>shoppingcart</title>
<g>
	<path d="M21.8,6.1c-0.1-0.1-0.2-0.2-0.4-0.2H6.3L5.6,2.4C5.5,2.1,5.3,2,5.1,2H2.4C2.1,2,1.9,2.2,1.9,2.5S2.1,3,2.4,3h2.4l2.5,11.3
		l0.1,0.4c0,0-0.3,0.4-0.4,0.5c-0.2,0.4-0.4,0.8-0.4,1.2c0,1.2,1,2.2,2.2,2.2h10.4c0.3,0,0.5-0.2,0.5-0.5s-0.2-0.5-0.5-0.5H8.7
		c-0.7,0-1.2-0.6-1.2-1.2c0-0.3,0.1-0.5,0.2-0.7C7.8,15.6,8,15.3,8,15.3h11.6c0.2,0,0.4-0.2,0.5-0.4l1.8-8.4
		C21.9,6.4,21.9,6.2,21.8,6.1z M8.2,14.3L8.1,14l-0.7-3.2h2.3l0.3,3.5H8.2z M10.7,10.8h2.6v3.5H11L10.7,10.8z M10.6,9.9l-0.2-3h2.9
		v3H10.6z M14.3,10.8h2.6l-0.3,3.5h-2.3V10.8z M14.3,9.9v-3h2.9l-0.2,3H14.3z M9.4,6.9l0.2,3H7.2l-0.6-3C6.6,6.9,9.4,6.9,9.4,6.9z
		 M19.2,14.3h-1.6l0.3-3.5H20L19.2,14.3z M20.2,9.9h-2.3l0.2-3h2.7L20.2,9.9z"/>
	<ellipse cx="8.5" cy="20.9" rx="1.1" ry="1.1"/>
	<ellipse cx="18.1" cy="20.9" rx="1.1" ry="1.1"/>
</g>
</svg>
