<svg id="Ebene_1" data-name="Ebene 1" xmlns="http://www.w3.org/2000/svg" viewBox="0 0 24 24"><title>twitter</title><path d="M21.47,4.35a11.1,11.1,0,0,1-2.63,1A4.2,4.2,0,0,0,15.89,4a4,4,0,0,0-4.11,4.05,3,3,0,0,0,.11,1A11.84,11.84,0,0,1,3.47,4.78a3.54,3.54,0,0,0-.63,2,4.26,4.26,0,0,0,1.79,3.41,4.25,4.25,0,0,1-1.89-.53h0A4,4,0,0,0,6,13.63a3.54,3.54,0,0,1-1.05.11,1.54,1.54,0,0,1-.74-.11A4,4,0,0,0,8,16.4a8.26,8.26,0,0,1-5.05,1.71A2.88,2.88,0,0,1,2,18a10.18,10.18,0,0,0,6.32,2A11.51,11.51,0,0,0,20,8.51V8a6.43,6.43,0,0,0,2-2.13,8.28,8.28,0,0,1-2.32.64A3.6,3.6,0,0,0,21.47,4.35Z"/></svg>