<?xml version="1.0" encoding="UTF-8" standalone="no"?>
<svg width="32px" height="32px" viewBox="0 0 32 32" version="1.1" xmlns="http://www.w3.org/2000/svg" xmlns:xlink="http://www.w3.org/1999/xlink">
    <!-- Generator: Sketch 41.2 (35397) - http://www.bohemiancoding.com/sketch -->
    <title>contacts</title>
    <desc>Created with Sketch.</desc>
    <defs>
        <rect id="path-1" x="0" y="5" width="32" height="22"></rect>
        <mask id="mask-2" maskContentUnits="userSpaceOnUse" maskUnits="objectBoundingBox" x="0" y="0" width="32" height="22" fill="white">
            <use xlink:href="#path-1"></use>
        </mask>
    </defs>
    <g id="Page-1" stroke="none" stroke-width="1" fill="none" fill-rule="evenodd">
        <g id="Desktop-HD" transform="translate(-50.000000, -1644.000000)">
            <g id="Contacts" transform="translate(50.000000, 1631.000000)">
                <g id="contacts" transform="translate(0.000000, 13.000000)">
                    <rect id="Rectangle-68" fill-opacity="0" fill="#FAFAFA" x="0" y="0" width="32" height="32"></rect>
                    <path d="M9,16 C10.375,16 11.5,14.875 11.5,13.5 C11.5,12.125 10.375,11 9,11 C7.625,11 6.5,12.125 6.5,13.5 C6.5,14.875 7.625,16 9,16 L9,16 Z M9,17.25 C7.3125,17.25 4,18.0625 4,19.75 L4,21 L14,21 L14,19.75 C14,18.0625 10.6875,17.25 9,17.25 L9,17.25 Z" id="Shape" fill="#B70032"></path>
                    <rect id="Rectangle-25" fill="#B70032" x="17" y="11" width="11" height="2"></rect>
                    <rect id="Rectangle-25" fill="#B70032" x="17" y="15" width="11" height="2"></rect>
                    <rect id="Rectangle-25" fill="#B70032" x="17" y="19" width="5" height="2"></rect>
                    <use id="Rectangle-24" stroke="#B70032" mask="url(#mask-2)" stroke-width="2" xlink:href="#path-1"></use>
                </g>
            </g>
        </g>
    </g>
</svg>