<?xml version="1.0" encoding="utf-8"?>
<!-- Generator: Adobe Illustrator 20.0.0, SVG Export Plug-In . SVG Version: 6.00 Build 0)  -->
<svg version="1.1" id="Ebene_1" xmlns="http://www.w3.org/2000/svg" xmlns:xlink="http://www.w3.org/1999/xlink" x="0px" y="0px"
	 viewBox="0 0 24 24" style="enable-background:new 0 0 24 24;" xml:space="preserve">
<title>user</title>
<path d="M18.8,16.6c-1.2-0.4-2.7-0.8-4.3-1.7v-1.4c1.5-1.4,2.4-3.3,2.5-5.4C17,5.7,15.7,2,12.1,2C8.8,2,7.3,5.1,7.3,8.1
	c0,2.6,1.3,4.1,2.3,5.2l0.1,0.1v1.4c-1.7,1-3.2,1.4-4.5,1.8c-2.1,0.6-3.8,1.1-3.8,3.6v1.2C1.4,21.8,1.7,22,2,22h20
	c0.3,0,0.5-0.2,0.5-0.5v-1.2C22.5,17.7,20.9,17.2,18.8,16.6z M10.5,15.6c0.1-0.1,0.2-0.2,0.2-0.4v-1.9c0-0.1,0-0.2-0.1-0.3l-0.3-0.3
	c-1-1.1-2.1-2.3-2.1-4.5c0-2.4,1-5.1,3.9-5.1C15,3,16,6.1,16,8.1c0,1.8-0.9,3.6-2.3,4.8c-0.1,0.1-0.2,0.2-0.2,0.4l0,1.9
	c0,0.1,0,0.3,0.2,0.4c0.3,0.3,0.6,0.4,0.9,0.5L12,17.6l-2.5-1.5C10,15.9,10.2,15.8,10.5,15.6z M2.5,21v-0.7c0-1.7,0.9-2.1,3-2.7
	c0.9-0.2,1.8-0.5,2.8-1l3.5,2c0.2,0.1,0.3,0.1,0.4,0l3.4-2c1,0.4,2,0.6,2.8,0.8c2,0.6,3,1,3,2.8l0,0.8"/>
</svg>
