<svg id="Ebene_1" data-name="Ebene 1" xmlns="http://www.w3.org/2000/svg" viewBox="0 0 24 24"><title>whatsapp</title><path id="WhatsApp" d="M22,11.82a9.84,9.84,0,0,1-9.79,9.79,9.12,9.12,0,0,1-4.74-1.26L2,22l1.79-5.26a10.06,10.06,0,0,1-1.37-5.05A9.62,9.62,0,0,1,12.21,2,9.77,9.77,0,0,1,22,11.82ZM12.21,3.61A8.22,8.22,0,0,0,4,11.82a8.58,8.58,0,0,0,1.58,4.84L4.53,19.71l3.16-1.05A8.21,8.21,0,1,0,12.21,3.61ZM17.16,14a1.45,1.45,0,0,0-.42-.32A11.7,11.7,0,0,0,15.05,13c-.21-.11-.42-.11-.53.11a5.78,5.78,0,0,0-.74.95c-.11.21-.32.21-.53.11A7.21,7.21,0,0,1,11.37,13,7.24,7.24,0,0,1,10,11.29c-.11-.21,0-.32.11-.53s.21-.32.32-.42a.55.55,0,0,0,.21-.42c.11-.21,0-.32,0-.42a19.28,19.28,0,0,1-.74-1.79c-.21-.42-.42-.42-.53-.42H8.84a1.16,1.16,0,0,0-.63.32,2.71,2.71,0,0,0-.84,2A4.44,4.44,0,0,0,8.32,12a9.48,9.48,0,0,0,4.11,3.58c2.42.95,2.42.63,2.84.63s1.47-.53,1.58-1.16A2,2,0,0,0,17.16,14Z"/></svg>