<?xml version="1.0" encoding="utf-8"?>
<!-- Generator: Adobe Illustrator 20.0.0, SVG Export Plug-In . SVG Version: 6.00 Build 0)  -->
<svg version="1.1" id="Ebene_1" xmlns="http://www.w3.org/2000/svg" xmlns:xlink="http://www.w3.org/1999/xlink" x="0px" y="0px"
	 viewBox="0 0 25 25" style="enable-background:new 0 0 25 25;" xml:space="preserve">
<path id="Archiv" d="M12,22.5c-0.1,0-0.2,0-0.3-0.1l-1.6-1.6H5.4c-0.2,0-0.4-0.2-0.4-0.4V3.9c0-0.2,0.2-0.4,0.4-0.4h8.8
	c0.1,0,0.2,0,0.3,0.1l4.4,4.1C19,7.8,19,7.9,19,8v12.3c0,0.2-0.2,0.4-0.4,0.4h-4.7l-1.6,1.6C12.2,22.5,12.1,22.5,12,22.5z M9.7,19.3
	l2.3,2.3l2.3-2.3h-1c-0.2,0-0.4-0.2-0.4-0.4v-2.4h-1.8v2.4c0,0.2-0.2,0.4-0.4,0.4H9.7z M14.7,20h3.4V8.6h-4c-0.2,0-0.4-0.2-0.4-0.4
	V4.3h-8V20h3.4l-0.8-0.8c-0.1-0.1-0.2-0.3-0.1-0.4c0.1-0.2,0.2-0.3,0.4-0.3h1.6V16c0-0.2,0.2-0.4,0.4-0.4h2.6c0.2,0,0.4,0.2,0.4,0.4
	v2.4h1.6c0.2,0,0.3,0.1,0.4,0.3c0.1,0.2,0,0.3-0.1,0.4L14.7,20z M14.6,7.8h3.2l-3.2-3V7.8z M14.2,13.9h-0.8l0-2.1l0-1.4
	c0-0.1,0-0.2,0.1-0.3c0.1-0.1,0.2-0.1,0.3-0.1h1.8c0.2,0,0.4,0.2,0.4,0.4v1.5c0,0.2-0.2,0.4-0.4,0.4h-1.3V13.9z M14.2,11.5h0.9v-0.7
	h-0.9L14.2,11.5z M12.4,13.9h-0.8V10h0.8V13.9z M10.7,13.8H8.5c-0.1,0-0.3-0.1-0.4-0.2c-0.1-0.1-0.1-0.3,0-0.4l1.4-2.4H8V10h2.2
	c0.1,0,0.3,0.1,0.4,0.2c0.1,0.1,0.1,0.3,0,0.4L9.2,13h1.5V13.8z"/>
</svg>
